<svg xmlns="http://www.w3.org/2000/svg" width="360" height="800" fill="none">
	<path stroke="#fff" d="M270 324.82c18.83 2.11 32.94 11.92 41.88 22.18M248 325.85a76.63 76.63 0 0 1 11.5-1.38"/>
	<circle cx="136" cy="285.5" r="20.5" fill="#fff"/>
	<rect width="161" height="159" x="160" y="601" fill="#fff" rx="2"/>
	<path fill="#fff" fill-rule="evenodd"
			d="M140.58 190a2 2 0 0 0-2-2h-4.38a2 2 0 0 0-2 2v22.18c0 .94.76 1.7 1.7 1.7.93 0 1.7.76 1.7 1.7v41.72a.59.59 0 1 0 1.17 0v-41.5c0-1.05.85-1.9 1.9-1.9a1.9 1.9 0 0 0 1.91-1.91V190Zm-18.5 27.12a1.95 1.95 0 0 1 1.5-2.31 1.95 1.95 0 0 0 1.5-2.31l-4.35-20.48a2 2 0 0 0-2.37-1.54l-4.29.92a2 2 0 0 0-1.54 2.37l4.41 20.76c.2.9 1.07 1.46 1.97 1.27.89-.19 1.77.38 1.96 1.28l8.69 40.86a.59.59 0 1 0 1.15-.24l-8.63-40.58Zm-12.02-.77c.43.99-.01 2.14-1 2.58a1.96 1.96 0 0 0-.99 2.59l16.83 37.8a.59.59 0 1 1-1.08.48l-16.95-38.09a1.65 1.65 0 0 0-2.18-.83c-.83.37-1.8 0-2.17-.84l-8.64-19.4a2 2 0 0 1 1.02-2.63l4-1.79a2 2 0 0 1 2.64 1.02l8.52 19.1Zm-14.7 12.33a1.98 1.98 0 0 1 .43-2.76 1.98 1.98 0 0 0 .44-2.76l-12.29-16.91a2 2 0 0 0-2.8-.44l-3.54 2.57a2 2 0 0 0-.44 2.8l12.5 17.2c.52.72 1.54.88 2.26.35a1.63 1.63 0 0 1 2.28.36l24.49 33.7a.59.59 0 1 0 .95-.68l-24.28-33.43Zm-11.29 4.1a2 2 0 0 1 .14 2.83c-.74.82-.69 2.1.13 2.84l30.6 27.56a.59.59 0 0 1-.78.87l-30.92-27.83a1.58 1.58 0 0 0-2.23.11c-.59.66-1.6.7-2.24.12l-15.83-14.25a2 2 0 0 1-.15-2.82l2.94-3.26a2 2 0 0 1 2.82-.15l15.52 13.97Zm-8.45 17.33a2 2 0 0 1-.73-2.74 2 2 0 0 0-.72-2.74L56.08 234.2a2 2 0 0 0-2.73.73l-2.2 3.8a2 2 0 0 0 .74 2.73l18.43 10.65a1.6 1.6 0 0 0 2.18-.59 1.6 1.6 0 0 1 2.18-.58l36 20.79a.59.59 0 1 0 .59-1.02L75.62 250.1Zm-8.65 8.23a2 2 0 0 1 1.28 2.51 2 2 0 0 0 1.28 2.51l39.07 12.7a.59.59 0 1 1-.36 1.12L68.8 264.37a1.61 1.61 0 0 0-2.03 1.03 1.61 1.61 0 0 1-2.03 1.04l-20.23-6.58a2 2 0 0 1-1.28-2.52l1.35-4.17a2 2 0 0 1 2.52-1.28l19.87 6.45Zm-.68 19.35a2 2 0 0 1-1.78-2.2v-.05a2 2 0 0 0-1.78-2.2l-20.77-2.18a2 2 0 0 0-2.2 1.78l-.45 4.36a2 2 0 0 0 1.78 2.2l21.19 2.22c.86.1 1.64-.53 1.73-1.4.09-.86.87-1.5 1.73-1.4l41.21 4.33a.59.59 0 0 0 .12-1.17l-40.78-4.29Zm41.23 10.87a.59.59 0 0 0-.65-.52l-40.71 4.27a2 2 0 0 1-2.2-1.79 2.01 2.01 0 0 0-2.2-1.8l-20.77 2.19a2 2 0 0 0-1.78 2.2l.46 4.36a2 2 0 0 0 2.2 1.78l21.17-2.23a1.6 1.6 0 0 0 1.42-1.74c-.1-.88.54-1.66 1.41-1.75L107 289.2a.59.59 0 0 0 .52-.65Zm-40.96 16.76a2 2 0 0 0 2.52 1.3L108 293.96a.59.59 0 1 1 .36 1.12l-39.3 12.77a1.6 1.6 0 0 0-1.03 2.01 1.6 1.6 0 0 1-1.02 2.02l-20.24 6.57a2 2 0 0 1-2.53-1.28L42.9 313a2 2 0 0 1 1.28-2.52l19.86-6.46a2 2 0 0 1 2.53 1.3Zm44.43-5.6a.59.59 0 0 0-.8-.2l-35.4 20.43c-.95.55-2.17.22-2.71-.72a1.98 1.98 0 0 0-2.7-.73l-18.1 10.45a2 2 0 0 0-.74 2.73l2.2 3.8a2 2 0 0 0 2.72.73l18.42-10.63a1.62 1.62 0 0 0 .59-2.21 1.62 1.62 0 0 1 .6-2.22l35.7-20.62a.59.59 0 0 0 .22-.8Zm-30.6 32.01c.73.8 1.96.87 2.77.15l30.35-27.33a.59.59 0 1 1 .8.87l-30.6 27.54a1.66 1.66 0 0 0-.12 2.33c.61.67.56 1.72-.12 2.33l-15.78 14.2a2 2 0 0 1-2.82-.14l-2.94-3.26a2 2 0 0 1 .15-2.83l15.55-14c.8-.72 2.04-.66 2.76.15Zm38.26-23.13a.59.59 0 0 0-.82.13L93.8 341.81a1.92 1.92 0 0 1-2.68.42 1.92 1.92 0 0 0-2.68.42l-12.32 16.97a2 2 0 0 0 .44 2.79l3.55 2.58a2 2 0 0 0 2.8-.44l12.45-17.15a1.7 1.7 0 0 0-.37-2.36 1.69 1.69 0 0 1-.38-2.35l24.17-33.27a.59.59 0 0 0-.13-.82Zm-14.85 41.65c.96.43 2.09 0 2.51-.96l16.62-37.32a.59.59 0 0 1 1.08.48l-16.7 37.5c-.39.86 0 1.87.86 2.25a1.7 1.7 0 0 1 .86 2.24l-8.62 19.35a2 2 0 0 1-2.64 1.01l-4-1.78a2 2 0 0 1-1.02-2.64l8.53-19.16a1.9 1.9 0 0 1 2.52-.97Zm25.47-36.66a.59.59 0 0 0-.7.45l-8.51 40.05a1.83 1.83 0 0 1-2.17 1.41 1.83 1.83 0 0 0-2.18 1.42l-4.37 20.58a2 2 0 0 0 1.54 2.38l4.29.9a2 2 0 0 0 2.37-1.53l4.39-20.65c.2-.96-.41-1.9-1.37-2.1a1.77 1.77 0 0 1-1.36-2.1l8.52-40.11a.59.59 0 0 0-.45-.7Zm11.26.91a.59.59 0 1 1 1.16-.24l8.5 40.01a1.8 1.8 0 0 0 2.16 1.4c.99-.2 1.96.43 2.17 1.41l4.37 20.6a2 2 0 0 1-1.54 2.37l-4.29.91a2 2 0 0 1-2.37-1.54l-4.38-20.64c-.21-.96.4-1.9 1.37-2.11a1.78 1.78 0 0 0 1.37-2.11l-8.52-40.06Zm10.8-96.98a1.88 1.88 0 0 1 2.22-1.45 1.88 1.88 0 0 0 2.23-1.45l4.37-20.54a2 2 0 0 0-1.54-2.37l-4.3-.92a2 2 0 0 0-2.37 1.54l-4.4 20.7c-.2.93.4 1.84 1.33 2.04.93.2 1.53 1.12 1.33 2.05l-8.67 40.79a.59.59 0 0 0 1.15.24l8.64-40.63Zm18.73 2.89a1.81 1.81 0 0 1-2.4.92c-.91-.41-1.98 0-2.4.92l-16.91 38a.59.59 0 1 1-1.08-.49l16.93-38.01c.4-.9 0-1.97-.9-2.37a1.8 1.8 0 0 1-.91-2.36l8.57-19.27a2 2 0 0 1 2.64-1.01l4.01 1.78a2 2 0 0 1 1.01 2.64l-8.56 19.25Zm7.87 9.38a1.8 1.8 0 0 1 2.5-.4c.8.59 1.92.4 2.5-.4l12.4-17.05a2 2 0 0 0-.44-2.8l-3.55-2.57a2 2 0 0 0-2.8.44l-12.38 17.04c-.59.81-.4 1.95.4 2.53.81.6 1 1.72.4 2.53l-24.42 33.62a.59.59 0 0 0 .96.7l24.43-33.64Zm15.73 10.29c-.72.65-1.84.6-2.5-.13a1.77 1.77 0 0 0-2.49-.13l-30.92 27.84a.59.59 0 1 1-.79-.87l30.87-27.8c.76-.68.82-1.84.14-2.6a1.84 1.84 0 0 1 .13-2.6l15.64-14.07a2 2 0 0 1 2.83.15l2.93 3.25a2 2 0 0 1-.15 2.83l-15.69 14.13Zm3.5 11.77c.83-.48 1.89-.2 2.37.64a1.73 1.73 0 0 0 2.37.63l18.31-10.57a2 2 0 0 0 .73-2.74l-2.19-3.8a2 2 0 0 0-2.73-.73l-18.2 10.5c-.9.53-1.2 1.67-.68 2.56.51.9.2 2.04-.69 2.56l-35.92 20.74a.59.59 0 0 0 .6 1.02l36.03-20.8Zm10.13 15.76c-.9.3-1.86-.2-2.15-1.1a1.7 1.7 0 0 0-2.16-1.1l-39.57 12.86a.59.59 0 0 1-.36-1.12l39.4-12.8a1.9 1.9 0 0 0 1.2-2.39 1.9 1.9 0 0 1 1.23-2.38l19.96-6.49a2 2 0 0 1 2.52 1.28l1.35 4.18a2 2 0 0 1-1.28 2.52l-20.14 6.54Zm-1.58 12.26c.92-.1 1.75.57 1.85 1.5.1.92.92 1.59 1.85 1.49l21.08-2.22a2 2 0 0 0 1.78-2.2l-.46-4.36a2 2 0 0 0-2.2-1.77l-20.84 2.19a1.92 1.92 0 0 0-1.71 2.1 1.93 1.93 0 0 1-1.71 2.12l-41.07 4.32a.59.59 0 0 0 .12 1.17l41.31-4.34Zm-41.43 9.12a.59.59 0 0 0-.12 1.18l41.24 4.33c.94.1 1.62.94 1.52 1.88a1.7 1.7 0 0 0 1.52 1.88l21.06 2.21a2 2 0 0 0 2.2-1.78l.45-4.36a2 2 0 0 0-1.78-2.2l-20.87-2.2a1.9 1.9 0 0 0-2.08 1.7 1.9 1.9 0 0 1-2.08 1.68l-41.06-4.32Zm-1.6 6.98a.59.59 0 0 1 .36-1.12l39.18 12.73a1.9 1.9 0 0 0 2.4-1.22 1.9 1.9 0 0 1 2.4-1.22l19.96 6.48a2 2 0 0 1 1.28 2.52l-1.35 4.17a2 2 0 0 1-2.53 1.28l-20.14-6.54a1.7 1.7 0 0 1-1.1-2.14 1.7 1.7 0 0 0-1.08-2.14l-39.38-12.8Zm-2.07 4.47a.59.59 0 0 0-.59 1.02l35.82 20.69c.81.46 1.09 1.5.62 2.3-.46.81-.19 1.84.62 2.3l18.35 10.6a2 2 0 0 0 2.74-.73l2.19-3.8a2 2 0 0 0-.73-2.73l-18.16-10.48a1.92 1.92 0 0 0-2.62.7 1.92 1.92 0 0 1-2.61.7l-35.63-20.56Zm-4.32 5.74a.59.59 0 0 1 .79-.87l30.5 27.46c.78.7 1.97.64 2.67-.14a1.9 1.9 0 0 1 2.66-.14l15.6 14.05a2 2 0 0 1 .15 2.82l-2.93 3.26a2 2 0 0 1-2.83.15l-15.72-14.16a1.72 1.72 0 0 1-.13-2.42c.63-.7.58-1.8-.13-2.43l-30.63-27.58Zm-3.7 3.1a.59.59 0 1 0-.94.7l24.22 33.34a1.7 1.7 0 0 1-.38 2.39 1.7 1.7 0 0 0-.38 2.38l12.45 17.13a2 2 0 0 0 2.8.44l3.54-2.57a2 2 0 0 0 .44-2.8l-12.33-16.97a1.9 1.9 0 0 0-2.65-.42 1.9 1.9 0 0 1-2.65-.42l-24.11-33.2Zm-6.27 3.57a.59.59 0 0 1 1.08-.48l16.68 37.48c.41.93 1.5 1.34 2.42.93.93-.41 2.01 0 2.43.93l8.56 19.23a2 2 0 0 1-1.02 2.64l-4 1.78a2 2 0 0 1-2.65-1.01l-8.58-19.29c-.4-.89 0-1.94.9-2.33.89-.4 1.29-1.45.9-2.34l-16.72-37.54Zm-11.77 2.05a.59.59 0 1 1 1.18 0v40.93c0 1 .8 1.8 1.8 1.8s1.8.8 1.8 1.8v21.08a2 2 0 0 1-2 2h-4.38a2 2 0 0 1-2-2v-21.08c0-1 .8-1.8 1.8-1.8s1.8-.8 1.8-1.8V314.9Z"
			clip-rule="evenodd" style="mix-blend-mode:difference"/>
	<path fill="#fff" d="M179.66 43H42.06a2 2 0 0 0-2 2v6.25c0 1.1.9 2 2 2h137.6a2 2 0 0 0 2-2V45a2 2 0 0 0-2-2Z"/>
	<path fill="#fff" d="M107.38 67.8H42.06a2 2 0 0 0-2 2v6.25c0 1.1.9 2 2 2h65.31a2 2 0 0 0 2-2v-6.24a2 2 0 0 0-2-2Z"/>
	<path fill="#fff"
			d="M107.38 92.46H42.06a2 2 0 0 0-2 2v6.25c0 1.1.9 2 2 2h65.31a2 2 0 0 0 2-2v-6.25a2 2 0 0 0-2-2Z"/>
	<path fill="#fff"
			d="M107.38 117.12H42.06a2 2 0 0 0-2 2v6.25c0 1.1.9 2 2 2h65.31a2 2 0 0 0 2-2v-6.25a2 2 0 0 0-2-2Z"/>
	<path fill="#fff"
			d="M107.38 141.77H42.06a2 2 0 0 0-2 2v6.25c0 1.1.9 2 2 2h65.31a2 2 0 0 0 2-2v-6.25a2 2 0 0 0-2-2Z"/>
	<path fill="#fff" d="M240.8 80.13h-57.19a2 2 0 0 0-2 2v6.25c0 1.1.9 2 2 2h57.2a2 2 0 0 0 2-2v-6.25a2 2 0 0 0-2-2Z"/>
	<path fill="#fff"
			d="M240.8 104.79h-57.19a2 2 0 0 0-2 2v6.25c0 1.1.9 2 2 2h57.2a2 2 0 0 0 2-2v-6.25a2 2 0 0 0-2-2Z"/>
	<path fill="#fff"
			d="M240.8 129.44h-57.19a2 2 0 0 0-2 2v6.25c0 1.1.9 2 2 2h57.2a2 2 0 0 0 2-2v-6.25a2 2 0 0 0-2-2Z"/>
	<path fill="#fff" d="M240.8 154.1h-57.19a2 2 0 0 0-2 2v6.25c0 1.1.9 2 2 2h57.2a2 2 0 0 0 2-2v-6.25a2 2 0 0 0-2-2Z"/>
	<path fill="#fff"
			d="M205.75 82.16h-57.14a2 2 0 0 0-2 2v2.14c0 1.1.9 2 2 2h57.14a2 2 0 0 0 2-2v-2.14a2 2 0 0 0-2-2Z"/>
	<path fill="#fff"
			d="M205.75 106.82h-57.14a2 2 0 0 0-2 2v2.14c0 1.1.9 2 2 2h57.14a2 2 0 0 0 2-2v-2.14a2 2 0 0 0-2-2Z"/>
	<path fill="#fff"
			d="M205.75 131.47h-57.14a2 2 0 0 0-2 2v2.14c0 1.1.9 2 2 2h57.14a2 2 0 0 0 2-2v-2.14a2 2 0 0 0-2-2Z"/>
	<path fill="#fff"
			d="M205.75 156.13h-57.14a2 2 0 0 0-2 2v2.14c0 1.1.9 2 2 2h57.14a2 2 0 0 0 2-2v-2.14a2 2 0 0 0-2-2Z"/>
	<path fill="#fff" d="M180.65 84.34h-70.26a1.01 1.01 0 1 0 0 2.03h70.26a1.01 1.01 0 1 0 0-2.03Z"/>
	<path fill="#fff" d="M180.65 108.95h-70.26a1.01 1.01 0 1 0 0 2.03h70.26a1.02 1.02 0 0 0 0-2.03Z"/>
	<path fill="#fff" d="M180.65 133.56h-70.26a1.01 1.01 0 1 0 0 2.03h70.26a1.02 1.02 0 0 0 0-2.03Z"/>
	<path fill="#fff" d="M180.65 158.16h-70.26a1.02 1.02 0 0 0 0 2.03h70.26a1.01 1.01 0 1 0 0-2.03Z"/>
	<path fill="#fff"
			d="M240.86 203.81h-24.87a2 2 0 0 0-2 2v2.14c0 1.1.9 2 2 2h24.87a2 2 0 0 0 2-2v-2.14a2 2 0 0 0-2-2Z"/>
	<path fill="#fff" d="M241.8 205.84h-59.17a1.02 1.02 0 0 0 0 2.03h59.16a1.02 1.02 0 0 0 0-2.03Z"/>
	<path fill="#fff" d="M42 173.06h31.05a2 2 0 0 0 2-2v-2.14a2 2 0 0 0-2-2H42a2 2 0 0 0-2 2v2.14c0 1.1.9 2 2 2Z"/>
	<path fill="#fff" d="M41.05 171.03h67.28a1.02 1.02 0 0 0 0-2.03H41.05a1.01 1.01 0 1 0 0 2.03Z"/>
	<path fill="#fff" d="M180.65 72.01h-70.26a1.01 1.01 0 1 0 0 2.03h70.26a1.01 1.01 0 1 0 0-2.03Z"/>
	<path fill="#fff" d="M180.65 96.62h-70.26a1.01 1.01 0 1 0 0 2.03h70.26a1.01 1.01 0 1 0 0-2.03Z"/>
	<path fill="#fff" d="M180.65 121.28h-70.26a1.02 1.02 0 0 0 0 2.03h70.26a1.01 1.01 0 1 0 0-2.03Z"/>
	<path fill="#fff" d="M180.65 145.88h-70.26a1.01 1.01 0 1 0 0 2.03h70.26a1.02 1.02 0 0 0 0-2.03Z"/>
	<path fill="#fff"
			d="M240.86 178.7H111.38a2 2 0 0 0-2 2v6.26c0 1.1.9 2 2 2h129.48a2 2 0 0 0 2-2v-6.25a2 2 0 0 0-2-2Z"/>
	<rect width="96" height="96" x="224" y="134" fill="#fff" rx="2" style="mix-blend-mode:difference"/>
	<rect width="30" height="200" x="286" y="40" fill="#fff" rx="2" style="mix-blend-mode:difference"/>
	<path fill="#000"
			d="M287 115.5V131c0 1.1.9 2 2 2h24a2 2 0 0 0 2-2v-9c0-1.1-.9-2-2-2.07-9.52-.63-15.29-5.66-24-6.35-1.1-.09-2 .81-2 1.92Z"/>
	<path fill="#fff" d="M120 724.83a2 2 0 0 1 3.41-1.42l33.18 33.18a2 2 0 0 1-1.42 3.41H122a2 2 0 0 1-2-2v-33.17Z"/>
	<path fill="#000" d="M322 689h-13.22v-2.71H322V689Z"/>
	<path fill="#000" d="m162 705 2.73.02-.02-.02v2.73H162V705Z"/>
	<path fill="#000"
			d="M233.96 667.77h5.25v-5.46h-2.44v-2.56h2.47v-5.45h2.77l-.02-.03v8.03h2.74l-.02-.03v2.71h-2.67v7.99h7.94v-7.98h2.72l-.03-.02v2.74h5.3l-.02-.02v2.57h-5.17v5.45h2.48l-.03-.02v2.55h26.71v2.73H255.3v2.74l.03-.03h-5.3v-2.62h-2.73v2.63h-2.54v-2.67h-2.72v-2.72h-2.73l.02.02v-2.56h-2.58v-5.44h-2.76v-2.58l-.02.03Z"/>
	<path fill="#000"
			d="M204.73 686.3v-5.27h13.24v-2.68h8v2.6h5.29v-5.17h2.73v2.54h5.33l-.02-.02v7.95h-2.54v2.7h-2.73v-5.16h-2.73v2.45h-2.54v-2.5h-5.49v-2.68h-2.5v2.66h2.52v2.54h2.66v2.76h-5.24v-2.68h-2.65V689h2.67v2.7h-8v2.55h-5.4v-2.5h2.64v-2.7h2.73v-2.77h2.52v-2.5h-2.5v2.52l-8.01-.03.02.02Z"/>
	<path fill="#000"
			d="M231.32 713.04v-8h2.66v-13.28h5.26v-2.73h2.73v-2.68h2.74v7.95l.02-.02h-2.74v8.02l.02-.02h-2.71v-2.5h-2.55v26.46h-2.72v-13.21h-2.73l.02.02Z"/>
	<path fill="#000"
			d="M215.3 721.02v-8h2.68v-5.26h2.73v-5.45h2.54v-5.27h2.7v-2.73h2.74v-5.24h2.54v7.91h-2.47v5.3h-2.74v5.42h-2.73v5.29h-2.54v2.7h-2.7v5.3h-2.78l.02.03Z"/>
	<path fill="#000"
			d="M263.32 691.68h-2.58v-2.64h-2.72v-2.75h-2.7v-2.61l-.03.02h18.66v2.54h-7.93v2.73h-2.73v2.73l.02-.02Z"/>
	<path fill="#000" d="M236.67 752.98h-2.63v-23.9h2.63v23.9Z"/>
	<path fill="#000" d="M263.3 673.01v-2.67h18.65v2.65h-18.68l.02.02Z"/>
	<path fill="#000" d="M215.27 721v5.26h-2.54v5.45h-2.7v2.53h-2.71v-5.2h2.66v-5.29h2.7v-2.73h2.61l-.02-.03Z"/>
	<path fill="#000" d="m220.76 662.32-.04-9.58v-1h-2.66v-2.69h5.2v7.92h2.76v2.73l.02-.02h-2.74v2.62h-2.56l.02.02Z"/>
	<path fill="#000" d="M290 718.3h2.7v2.7h2.56v2.7h2.69v2.54h-5.19v-2.48h-5.47V721l-.02.02h2.74v-2.74l-.02.02Z"/>
	<path fill="#000" d="M202.01 753.02v-13.28h2.72l-.02-.02V753h-2.72l.02.02Z"/>
	<path fill="#000" d="M244.76 712.96H242v-10.69l-.02.03h2.74l-.02-.03.03 10.72.02-.03Z"/>
	<path fill="#000" d="M244.7 633v10.66h-2.65v-10.64h2.68l-.02-.03Z"/>
	<path fill="#000" d="M252.73 718.27h-2.75v-10.52l-.02.02h2.74v10.53l.03-.03Z"/>
	<path fill="#000" d="M247.3 622.29v-10.56h2.7l-.02-.02v10.56h-2.72l.02.02Z"/>
	<path fill="#000" d="M247.29 723.71h-2.53v-10.75l-.03.03h2.53v10.75l.03-.03Z"/>
	<path fill="#000" d="M284.75 686.23v-2.46h10.47v2.46h-10.47Z"/>
	<path fill="#000" d="M225.96 625.04h2.7v7.9h-2.68v-7.92l-.02.02Z"/>
	<path fill="#000" d="M204.71 686.27V689h-8l.02.02v-2.72h8l-.02-.02Z"/>
	<path fill="#000" d="M199.3 697.02v-2.71h2.67v-2.52h2.7v5.2h-5.4l.02.03Z"/>
	<path fill="#000" d="M252.73 739.72h-2.68v-7.94h2.66v7.96l.02-.02Z"/>
	<path fill="#000" d="M223.27 617.01h2.7v8.03l.02-.02h-2.7v-8.03l-.02.02Z"/>
	<path fill="#000" d="M263.27 672.99v2.7h-8.03l.02.02v-2.7h8.03l-.02-.02Z"/>
	<path fill="#000" d="M234 651.71h-2.7v-8l-.03.03H234v8l.02-.03Z"/>
	<path fill="#000" d="M212.71 670.3h7.95v2.65h-7.93v-2.68l-.02.02Z"/>
	<path fill="#000" d="M218.05 729.03h2.64v-2.7h2.55v5.34h-5.2v-2.64Z"/>
	<path fill="#000" d="M249.99 689.02h5.27v2.72l.03-.03h-2.54v2.53H250V689l-.02.02Z"/>
	<path fill="#000" d="M284.77 667.76h7.89v2.47h-7.9v-2.47Z"/>
	<path fill="#000" d="M244.7 694.3h2.56v8l.03-.03h-2.59l.03.03v-8.02l-.03.02Z"/>
	<path fill="#000" d="M212.73 670.27h-7.95v-2.5h7.93v2.53l.02-.03Z"/>
	<path fill="#000" d="M212.71 619.73h2.55v8l.03-.02h-2.56v-8l-.02.02Z"/>
	<path fill="#000" d="m244.71 654.3 2.55-.03-.02-.02v8.02h-2.53l.02.03v-8.03l-.02.03Z"/>
	<path fill="#000" d="M188.76 672.96h-5.46v-2.68l-.03.02h5.47v2.69l.02-.03Z"/>
	<path fill="#000" d="M212.73 619.71h-2.68v-5.38h2.66v5.4l.02-.02Z"/>
	<path fill="#000" d="M250 611.74v-5.4h2.66v5.37h-2.68l.03.03Z"/>
	<path fill="#000" d="M263.3 627.73v-5.43h2.7l-.02-.03v5.44h-2.72l.02.02Z"/>
	<path fill="#000" d="M247.27 702.3h2.7v5.47l.02-.02h-2.7v-5.48l-.02.03Z"/>
	<path fill="#000" d="M276.7 654.27V657h-5.43l.02.02v-2.71h5.44l-.02-.03Z"/>
	<path fill="#000" d="M196.71 688.99v2.72h-5.44l.02.02v-2.72h5.44l-.02-.02Z"/>
	<path fill="#000" d="M260.68 630.25v5.46h-2.69l.02.02v-5.47h2.7l-.03-.02Z"/>
	<path fill="#000" d="M175.3 699.74v-2.72h5.43l-.02-.02v2.71h-5.44l.02.03Z"/>
	<path fill="#000" d="M298.01 713h-5.3v-2.7l-.03.03h5.3v2.69l.03-.03Z"/>
	<path fill="#000" d="M284.73 734.28h-2.71V729l-.03.02h2.72v5.28l.02-.02Z"/>
	<path fill="#000" d="M258.04 702.24h-2.7v-5.22h2.67l-.02-.02.03 5.27.02-.03Z"/>
	<path fill="#000" d="M199.27 697v2.74h-5.25l.02.02v-2.74h5.25l-.02-.03Z"/>
	<path fill="#000" d="M194.01 675.71h-5.25v-2.75l-.03.03h5.25v2.75l.03-.03Z"/>
	<path fill="#000" d="M257.99 635.7v5.24h-2.66v-5.21h2.69l-.03-.02Z"/>
	<path fill="#000" d="M178.04 651.68h-5.28v-2.61h5.26v2.63l.02-.02Z"/>
	<path fill="#000" d="M266 713h-2.7v-5.28l-.03.02H266v5.28l.02-.03Z"/>
	<path fill="#000" d="M209.96 635.77h2.74V641l.03-.02h-2.75v-5.25l-.02.03Z"/>
	<path fill="#000" d="M249.96 648.97v5.28h-2.72l.02.02v-5.28h2.72l-.02-.02Z"/>
	<path fill="#000" d="M313.98 721.06v2.6h-5.2v-2.6h5.2Z"/>
	<path fill="#000" d="M201.65 653.68h2.72v5.28l.02-.02h-2.71v-5.28l-.03.02Z"/>
	<path fill="#000" d="M290.02 680.94v-2.6h5.2v2.6h-5.2Z"/>
	<path fill="#000" d="M233.99 651.73h2.68v5.22H234v-5.24l-.02.02Z"/>
	<path fill="#000" d="M164.73 705.02v-2.75h5.25l-.02-.02V705h-5.25l.02.02Z"/>
	<path fill="#000" d="M247.27 723.74h2.67v5.22h-2.65v-5.25l-.02.03Z"/>
	<path fill="#000" d="M199.29 664.99h-5.27v-2.72l-.03.03h5.28v2.7l.02-.02Z"/>
	<path fill="#000" d="M180.71 654.3h5.27v2.7l.03-.02h-5.28v-2.72l-.02.03Z"/>
	<path fill="#000" d="M271.3 614.29v-5.27h2.7l-.02-.03v5.28h-2.72l.02.02Z"/>
	<path fill="#000" d="M186.01 734.3v-5.23h2.66v5.2h-2.68l.02.03Z"/>
	<path fill="#000" d="M311.27 638.27v2.68h-5.22v-2.65h5.24l-.02-.03Z"/>
	<path fill="#000" d="M169.99 718.28v2.68h-5.22v-2.66h5.24l-.03-.02Z"/>
	<path fill="#000" d="M185.99 657.01h5.3v2.7l.03-.03H186v-2.69l-.02.02Z"/>
	<path fill="#000" d="M215.27 627.73h2.67v5.22h-2.65v-5.24l-.02.02Z"/>
	<path fill="#000" d="M255.3 662.3v-5.24h2.65v5.21h-2.68l.02.02Z"/>
	<path fill="#000" d="M209.99 705v5.23h-2.66v-5.21h2.68L210 705Z"/>
	<path fill="#000" d="M226.01 721.02v-5.28h2.72l-.02-.02v5.27h-2.72l.02.03Z"/>
	<path fill="#000" d="M258.04 750.25h-2.78v-5.22l-.02.02h2.78v5.22l.02-.02Z"/>
	<path fill="#000" d="M263.24 646.25v5.46h-2.53l.02.02v-5.47h2.53l-.02-.02Z"/>
	<path fill="#000" d="M247.27 622.27v5.4h-2.5v-5.38h2.52l-.02-.02Z"/>
	<path fill="#000" d="M252.7 718.3h2.53v5.38h-2.5v-5.4l-.02.02Z"/>
	<path fill="#000" d="M284.73 718.28h-5.4v-2.54h5.4l-.02-.02v2.58l.02-.02Z"/>
	<path fill="#000" d="M252.7 739.74h2.55v5.31l.02-.02h-2.54v-5.31l-.02.02Z"/>
	<path fill="#000" d="M191.27 691.71v2.52h-5.22v-2.5h5.24l-.02-.02Z"/>
	<path fill="#000" d="M300.68 715.77h5.28v2.45h-5.26v-2.47l-.02.02Z"/>
	<path fill="#000" d="M193.99 675.73h5.28v2.56l.02-.02h-5.28v-2.56l-.02.02Z"/>
	<path fill="#000" d="M175.27 699.71v2.54h-5.31l.02.02v-2.53h5.31l-.02-.03Z"/>
	<path fill="#000" d="M188.76 702.33v-2.57h5.28l-.02-.02v2.56h-5.28l.02.02Z"/>
	<path fill="#000" d="M260.71 753.02h2.52v5.22h-2.5V753l-.02.02Z"/>
	<path fill="#000" d="M178.01 710.3v-2.59h5.25l-.02-.02v2.58h-5.25l.02.02Z"/>
	<path fill="#000" d="M276.73 654.3v-2.52h5.21v2.5h-5.23l.02.02Z"/>
	<path fill="#000" d="M186.01 705.02v-2.7h2.75l-.02-.02v2.7h-2.75l.02.01Z"/>
	<path fill="#000" d="M201.99 753v2.67h-2.66v-2.65h2.68L202 753Z"/>
	<path fill="#000" d="M225.99 670.3h2.67v2.65h-2.65v-2.68l-.02.03Z"/>
	<path fill="#000" d="M260.7 665v2.7h-2.75l.03.01v-2.69h2.75l-.02-.02Z"/>
	<path fill="#000" d="M231.24 665.05h2.72v2.72l.03-.03h-2.72v-2.72l-.03.03Z"/>
	<path fill="#000" d="M199.27 665.01h2.67v2.66h-2.65V665l-.02.02Z"/>
	<path fill="#000" d="M260.73 753h-2.7v-2.75l-.02.02h2.7v2.75l.02-.02Z"/>
	<path fill="#000" d="M289.99 742.3h2.67v2.66h-2.65v-2.68l-.02.02Z"/>
	<path fill="#000" d="M199.27 678.3h2.67v2.65h-2.65v-2.68l-.02.02Z"/>
	<path fill="#000" d="M186 734.27V737h-2.73l.02.03v-2.72h2.72l-.02-.03Z"/>
	<path fill="#000" d="M306.04 731.68h-2.74V729l-.03.02h2.75v2.69l.02-.03Z"/>
	<path fill="#000" d="M201.68 653.66H199V651h2.65v2.68l.03-.02Z"/>
	<path fill="#000" d="m218 662.3 2.76.02-.02-.02v2.65H218v-2.68l-.02.03Z"/>
	<path fill="#000" d="M282.01 729h-2.67v-2.66h2.65v2.68l.02-.02Z"/>
	<path fill="#000" d="M207.27 633.02h2.7v2.75l.02-.03h-2.7v-2.75l-.02.02Z"/>
	<path fill="#000" d="M273.96 721.05h2.72v2.61h-2.7v-2.63l-.02.02Z"/>
	<path fill="#000" d="M225.99 721v2.67h-2.66v-2.65h2.68l-.02-.03Z"/>
	<path fill="#000" d="M274.05 635.76v-2.72h2.6v2.7h-2.63l.03.02Z"/>
	<path fill="#000" d="M194.01 723.74v-2.68h2.66v2.65h-2.68l.02.03Z"/>
	<path fill="#000" d="M250.01 689h-2.67v-2.66h2.65v2.68l.02-.02Z"/>
	<path fill="#000" d="M209.96 654.33h2.78v2.65l.02-.02h-2.78v-2.66l-.02.03Z"/>
	<path fill="#000" d="M271.24 718.33h2.72v2.72l.03-.02h-2.72v-2.72l-.02.02Z"/>
	<path fill="#000" d="M297.99 713.02h2.7v2.75l.02-.02H298v-2.76l-.02.03Z"/>
	<path fill="#000" d="M265.99 713.02h2.72v2.72l.02-.03h-2.72V713l-.02.03Z"/>
	<path fill="#000" d="M217.99 638.3h2.67v2.65h-2.65v-2.68l-.02.03Z"/>
	<path fill="#000" d="M204.67 715.71h-2.6v-2.65h2.6v2.65Z"/>
	<path fill="#000" d="M284.76 712.96h-2.72v-2.61h2.7v2.64l.02-.03Z"/>
	<path fill="#000" d="M178 710.27V713h-2.73l.02.03v-2.72h2.72l-.02-.03Z"/>
	<path fill="#000" d="M199.24 641.05h2.74v2.68l.03-.02h-2.75v-2.69l-.02.03Z"/>
	<path fill="#000" d="M218.04 697.04v-2.71h2.62v2.7h-2.64l.02.02Z"/>
	<path fill="#000" d="M290 707.71h-2.66v-2.65h2.65v2.68l.02-.03Z"/>
	<path fill="#000" d="M266.01 643.73v-2.71h2.72l-.02-.02v2.71h-2.72l.02.02Z"/>
	<path fill="#000" d="M258 697.02c0-.9 0-1.81-.02-2.72l-.02.03h2.74V697l.03-.02h-2.75l.03.03Z"/>
	<path fill="#000" d="M268.73 697H266v-2.72l-.02.02h2.74l-.02-.03v2.75l.02-.03Z"/>
	<path fill="#000" d="M186 705v2.7h-2.76l.02.01v-2.7h2.75L186 705Z"/>
	<path fill="#000" d="M271.27 694.3H274v2.72l.02-.02h-2.74l.02.02v-2.74l-.02.02Z"/>
	<path fill="#000" d="M289.99 646.27V649h-2.72l.02.02v-2.71h2.72l-.02-.03Z"/>
	<path fill="#000" d="M252.7 646.27v2.7h-2.74l.02.02v-2.7h2.75l-.02-.01Z"/>
	<path fill="#000" d="M215.32 699.76v-2.72h2.72l-.02-.02v2.72h-2.72l.02.02Z"/>
	<path fill="#000" d="M242.06 646.32h2.62v2.62h-2.62v-2.63Z"/>
	<path fill="#000" d="M281.99 702.3h2.67v2.66h-2.65v-2.68l-.02.02Z"/>
	<path fill="#000" d="M273.99 697.02h2.67v2.7H274l.02.02v-2.75l-.02.03Z"/>
	<path fill="#000" d="M276.73 705h-2.75v-2.7l-.02.03h2.74v2.69l.03-.03Z"/>
	<path fill="#000" d="M265.96 702.33h2.78V705l.02-.03h-2.78v-2.65l-.02.02Z"/>
	<path fill="#000" d="M260.76 704.96h-2.72v-2.72l-.03.03h2.72v2.72l.02-.03Z"/>
	<path fill="#000" d="M210.01 705.02v-2.72h2.72l-.02-.02V705h-2.72l.02.02Z"/>
	<path fill="#000" d="M274 609.02v-2.68h2.67V609h-2.69l.03.03Z"/>
	<path fill="#000" d="M226.01 670.27h-2.67v-2.5h2.65v2.53l.02-.03Z"/>
	<path fill="#000" d="M204.73 739.74v-2.67h2.5v2.65h-2.52l.02.02Z"/>
	<path fill="#000" d="M260.73 665.02v-2.68h2.5V665h-2.53l.03.02Z"/>
	<path fill="#000" d="M263.24 699.77h2.72v2.56l.03-.02h-2.72v-2.56l-.02.02Z"/>
	<path fill="#000" d="M266 643.7v2.54h-2.76l.02.03v-2.54h2.75l-.02-.02Z"/>
	<path fill="#000" d="M201.99 643.73h2.67v2.5h-2.65v-2.52l-.02.02Z"/>
	<path fill="#000" d="M303.24 643.69h-2.46v-2.64h2.46v2.64Z"/>
	<path fill="#000" d="M220.76 614.24h-2.72v-2.46h2.7v2.48l.02-.02Z"/>
	<path fill="#000" d="M290 646.3v-2.52h2.67v2.5h-2.69l.03.02Z"/>
	<path fill="#000" d="M297.94 646.25h-2.61v-2.49h2.6v2.5Z"/>
	<path fill="#000" d="M271.29 699.71h-2.56V697l-.02.03h2.58l-.02-.03v2.75l.02-.03Z"/>
	<path fill="#000" d="M260.7 697.02h2.55v2.75l.02-.02h-2.54v-2.76l-.02.03Z"/>
	<path fill="#000" d="M207.29 651.71h-2.51v-2.66h2.49v2.68l.02-.02Z"/>
	<path fill="#000" d="M263.3 707.72h-2.55v-2.76l-.02.03h2.54v2.75l.02-.02Z"/>
	<path fill="#000" d="M271.29 707.71h-2.54v-2.75l-.02.03h2.53v2.75l.03-.02Z"/>
	<path fill="#000" d="M276.7 705.02h2.52v2.65h-2.5V705l-.01.03Z"/>
	<path fill="#000" d="M287.27 648.99v2.68h-2.5V649h2.53l-.03-.02Z"/>
	<path fill="#000" d="M231.3 643.71h-2.52v-2.66h2.5v2.69l.01-.03Z"/>
	<path fill="#000" d="M282.01 702.28h-2.67v-2.5h2.65v2.52l.02-.02Z"/>
	<path fill="#000" d="M180.73 697.02v-2.68h2.5V697h-2.52l.02.02Z"/>
	<path fill="#000" d="M271.27 707.74h2.67v2.5h-2.65v-2.53l-.02.03Z"/>
	<path fill="#000" d="M289.99 707.74h2.7v2.59l.02-.03H290v-2.59l-.02.02Z"/>
	<path fill="#000" d="M255.27 662.27v2.7h-2.6l.03.02v-2.7h2.6l-.03-.02Z"/>
	<path fill="#000" d="M266.01 694.28h-2.7v-2.6l-.02.03h2.7v2.6l.02-.03Z"/>
	<path fill="#000" d="M268.73 641.02v-2.72h2.56l-.02-.03V641h-2.56l.02.03Z"/>
	<path fill="#000" d="M175.27 713v2.74h-2.53l.02.02v-2.74h2.53l-.02-.03Z"/>
	<path fill="#000" d="M255.27 691.74h2.7v2.59l.02-.03h-2.7v-2.59l-.02.02Z"/>
	<path fill="#000" d="M228.73 715.74v-2.7h2.6l-.03-.02v2.7h-2.6l.03.02Z"/>
	<path fill="#000" d="M180.73 654.27h-2.7v-2.6l-.02.03h2.7v2.6l.02-.03Z"/>
	<path fill="#000" d="M207.27 651.73h2.7v2.6l.02-.03h-2.7v-2.59l-.02.02Z"/>
	<path fill="#000" d="m284.73 715.74.02-2.77-.02.02h2.53v2.75l.03-.02h-2.59l.03.02Z"/>
	<path fill="#000" d="M242.01 654.3v-2.52h2.7v2.52l.02-.03h-2.74l.02.03Z"/>
	<path fill="#000" d="M170.01 718.3v-2.53h2.75l-.02-.03v2.54h-2.75l.02.02Z"/>
	<path fill="#000" d="M196.7 638.3h2.55v2.75l.02-.03h-2.54v-2.75l-.02.02Z"/>
	<path fill="#000" d="M290.01 742.28h-2.67v-2.5h2.65v2.52l.02-.02Z"/>
	<path fill="#000" d="m274 699.71-.04 2.62.03-.03h-2.7v-2.59l-.02.02h2.74l-.02-.02Z"/>
	<path fill="#000" d="M287.27 715.74h2.72v2.56l.02-.02h-2.74l.02.02v-2.58l-.02.02Z"/>
	<path fill="#000" d="M311.29 638.3v-2.52h2.66v2.5h-2.68l.02.02Z"/>
	<path fill="#000" d="M282.02 638.24v-2.45h2.65v2.45h-2.65Z"/>
	<path fill="#000" d="M271.29 638.3v-2.54h2.75l-.02-.02v2.53h-2.75l.02.03Z"/>
	<path fill="#000" d="M260.71 651.71v2.52h-2.66v-2.5h2.69l-.03-.02Z"/>
	<path fill="#000" d="M287.3 721h-2.57v-2.73l-.02.03h2.58l-.02-.03v2.75l.02-.03Z"/>
	<path fill="#000" d="M215.32 659.68h-2.56v-2.72l-.03.02h2.56v2.72l.03-.02Z"/>
	<path fill="#000" d="M218.01 638.27h-2.67v-2.5h2.65v2.53l.02-.03Z"/>
	<path fill="#000" d="M271.27 656.99v2.68h-2.5V657h2.53l-.03-.02Z"/>
	<path fill="#000" d="M194.01 662.27h-2.7v-2.6l-.02.03h2.7v2.6l.02-.03Z"/>
	<path fill="#000" d="M218.01 662.27h-2.7v-2.6l-.02.03h2.7v2.6l.02-.03Z"/>
	<path fill="#000" d="M303.3 686.22v-2.45h2.66v2.45h-2.65Z"/>
	<path fill="#000" d="M228.73 662.27h-2.7v-2.6l-.02.03h2.7v2.6l.02-.03Z"/>
	<path fill="#000" d="M193.99 723.71v2.52h-2.66v-2.5h2.68l-.02-.02Z"/>
	<path fill="#000" d="M244.73 633.02v-2.68h2.5V633h-2.52l.02.03Z"/>
	<path fill="#000" d="M207.3 633h-2.52v-2.67h2.5v2.69l.01-.03Z"/>
	<path fill="#000" d="M281.95 686.25h-2.6v-2.47h2.6v2.47Z"/>
	<path fill="#000" d="M303.3 729h-2.52v-2.66h2.49v2.68l.02-.02Z"/>
	<path fill="#000" d="M223.3 616.99h-2.55v-2.75l-.02.02h2.54v2.75l.02-.02Z"/>
	<path fill="#000" d="M271.27 614.27v2.67h-2.5v-2.65h2.52l-.02-.02Z"/>
	<path fill="#000" d="M172.66 686.26h-2.61v-2.5h2.6v2.5Z"/>
	<path fill="#000" d="M266.01 622.3v-2.52h2.66v2.5h-2.68l.02.02Z"/>
	<path fill="#000" d="M308.73 734.28h-2.7v-2.6l-.02.03h2.7v2.6l.02-.03Z"/>
	<path fill="#000" d="M228.7 662.3h2.55v2.75l.02-.03h-2.54v-2.75l-.02.02Z"/>
	<path fill="#000" d="M284.7 734.3h2.52v2.66h-2.5v-2.68l-.01.02Z"/>
	<path fill="#000" d="M308.7 734.3h2.52v2.66h-2.5v-2.68l-.01.02Z"/>
	<path fill="#000" d="M183.27 737v2.67h-2.5v-2.65h2.52l-.02-.03Z"/>
	<path fill="#000" d="M212.7 641.01h2.52v2.66h-2.5V641l-.01.02Z"/>
	<path fill="#000" d="M268.7 715.74h2.55v2.59l.02-.03h-2.54v-2.59l-.02.02Z"/>
	<path fill="#000" d="M268.73 694.3v-2.52h2.54v2.52l.02-.02h-2.58l.02.02Z"/>
	<path fill="#000" d="M212.73 702.3v-2.54h2.6l-.03-.02v2.54h-2.6l.03.02Z"/>
	<path fill="#000" d="M252.73 646.3v-2.52h2.5v2.5h-2.53l.03.02Z"/>
	<path fill="#000" d="M183.3 670.27h-2.52v-2.5h2.5v2.53l.01-.03Z"/>
	<path fill="#000" d="M263.27 627.7v2.54h-2.6l.03.03v-2.54h2.6l-.03-.02Z"/>
	<path fill="#fff" d="M241.99 654.27h2.74v8.03H242v-8.03Z"/>
	<path fill="#fff" d="M220.73 689h-2.67v-2.66h2.65v2.68l.02-.02Z"/>
	<path fill="#fff" d="M223.3 683.72h-2.52v-2.66h2.5v2.68l.01-.02Z"/>
	<path fill="#fff" d="M212.73 686.3v-2.52h2.5v2.5h-2.52l.02.02Z"/>
	<path fill="#fff" d="M244.73 694.27v8.03h-2.74v-8.03h2.74Z"/>
	<path fill="#fff" d="M287.27 721.02v-2.74h2.74v2.74h-2.74Z"/>
	<path fill="#fff" d="M287.29 718.3h-2.58v-2.58h2.58v2.58Z"/>
	<path fill="#fff" d="M268.71 694.27h2.58v2.75h-2.58v-2.75Z"/>
	<path fill="#fff" d="M274 699.74h-2.73v-2.75H274v2.75Z"/>
	<path fill="#000"
			d="M180.04 616.27c-.26 0-.5-.08-.69-.25a.92.92 0 0 1-.28-.7 1 1 0 0 1 .34-.8c.23-.21.5-.32.78-.32s.51.09.69.27c.18.17.26.4.26.68 0 .32-.1.59-.33.8a1.1 1.1 0 0 1-.77.32Zm-1.3 7.94c-.3 0-.53-.08-.72-.22-.19-.15-.28-.37-.28-.66a17.14 17.14 0 0 1 .18-1.3l.66-3.15c.09-.39-.05-.66-.4-.82l-.23-.1.02-.16 2.63-.76.14.13-1.1 5.07a7.4 7.4 0 0 0-.1.77c0 .2.09.3.27.3.14 0 .28-.04.42-.12.14-.1.32-.25.54-.45l.12.13c-.23.34-.53.65-.9.93-.35.28-.77.41-1.25.41Z"/>
	<path fill="#fff" d="M80 724.83a2 2 0 0 1 3.41-1.42l33.18 33.18a2 2 0 0 1-1.42 3.41H82a2 2 0 0 1-2-2v-33.17Z"/>
	<path fill="#fff" d="M120 684.83a2 2 0 0 1 3.41-1.42l33.18 33.18a2 2 0 0 1-1.42 3.41H122a2 2 0 0 1-2-2v-33.17Z"/>
	<path fill="#fff" d="M40 684.83a2 2 0 0 1 3.41-1.42L76.6 716.6a2 2 0 0 1-1.42 3.41H42a2 2 0 0 1-2-2v-33.17Z"/>
	<path fill="#fff" d="M80 684.83a2 2 0 0 1 3.41-1.42l33.18 33.18a2 2 0 0 1-1.42 3.41H82a2 2 0 0 1-2-2v-33.17Z"/>
	<path fill="#fff" d="M120 660.83a2 2 0 0 1 3.41-1.42l33.18 33.18a2 2 0 0 1-1.42 3.41H122a2 2 0 0 1-2-2v-33.17Z"
			style="mix-blend-mode:difference"/>
	<path fill="#fff" d="M40 660.83a2 2 0 0 1 3.41-1.42L76.6 692.6a2 2 0 0 1-1.42 3.41H42a2 2 0 0 1-2-2v-33.17Z"
			style="mix-blend-mode:difference"/>
	<path fill="#fff" d="M80 660.83a2 2 0 0 1 3.41-1.42l33.18 33.18a2 2 0 0 1-1.42 3.41H82a2 2 0 0 1-2-2v-33.17Z"
			style="mix-blend-mode:difference"/>
	<path fill="#fff" d="M120 636.83a2 2 0 0 1 3.41-1.42l33.18 33.18a2 2 0 0 1-1.42 3.41H122a2 2 0 0 1-2-2v-33.17Z"
			style="mix-blend-mode:difference"/>
	<path fill="#fff" d="M40 636.83a2 2 0 0 1 3.41-1.42L76.6 668.6a2 2 0 0 1-1.42 3.41H42a2 2 0 0 1-2-2v-33.17Z"
			style="mix-blend-mode:difference"/>
	<path fill="#fff" d="M80 636.83a2 2 0 0 1 3.41-1.42l33.18 33.18a2 2 0 0 1-1.42 3.41H82a2 2 0 0 1-2-2v-33.17Z"
			style="mix-blend-mode:difference"/>
	<path fill="#fff" d="M120 615.83a2 2 0 0 1 3.41-1.42l33.18 33.18a2 2 0 0 1-1.42 3.41H122a2 2 0 0 1-2-2v-33.17Z"
			style="mix-blend-mode:difference"/>
	<path fill="#fff" d="M40 615.83a2 2 0 0 1 3.41-1.42L76.6 647.6a2 2 0 0 1-1.42 3.41H42a2 2 0 0 1-2-2v-33.17Z"
			style="mix-blend-mode:difference"/>
	<path fill="#fff" d="M80 615.83a2 2 0 0 1 3.41-1.42l33.18 33.18a2 2 0 0 1-1.42 3.41H82a2 2 0 0 1-2-2v-33.17Z"
			style="mix-blend-mode:difference"/>
	<rect width="10" height="10" x="280" y="240" fill="#fff" rx="2"/>
	<rect width="10" height="10" x="266" y="262" fill="#fff" rx="2"/>
	<rect width="10" height="10" x="266" y="251" fill="#fff" rx="2"/>
	<rect width="10" height="10" x="310" y="240" fill="#fff" rx="2"/>
	<path fill="#fff"
			d="M310 252a2 2 0 0 0-2-2h-16a2 2 0 0 0-2 2v16c0 1.1.9 2 2 2h6a2 2 0 0 0 2-2v-6c0-1.1.9-2 2-2h6a2 2 0 0 0 2-2v-6Z"/>
	<path fill="#fff"
			d="M236 275c0-1.1.9-2 2-2h36a2 2 0 0 1 2 2v36a2 2 0 0 1-2 2h-12.3a2 2 0 0 0-1.94 2.52l16.64 61.94c.53 2 3.38 1.96 3.87-.04l15.22-61.94a2 2 0 0 0-1.94-2.48H282a2 2 0 0 1-2-2v-36c0-1.1.9-2 2-2h36a2 2 0 0 1 2 2v36a2 2 0 0 1-2 2h-16.21a2 2 0 0 0-1.95 1.52l-19.03 77.45a2 2 0 0 1-1.92 1.52l-.77.01a2 2 0 0 1-1.95-1.48l-20.83-77.54a2 2 0 0 0-1.93-1.48H238a2 2 0 0 1-2-2v-36Z"/>
	<rect width="149" height="8" x="171" y="397" fill="#fff" rx="2"/>
	<rect width="8" height="59" x="312" y="397" fill="#fff" rx="2"/>
	<rect width="116" height="8" x="188" y="413" fill="#fff" rx="2"/>
	<rect width="8" height="72" x="296" y="413" fill="#fff" rx="2"/>
	<rect width="116" height="8" x="172" y="429" fill="#fff" rx="2"/>
	<rect width="116" height="8" x="172" y="537" fill="#fff" rx="2"/>
	<rect width="84" height="8" x="188" y="521" fill="#fff" rx="2"/>
	<rect width="84" height="8" x="188" y="445" fill="#fff" rx="2"/>
	<rect width="116" height="8" x="172" y="545" fill="#fff" rx="2" transform="rotate(-90 172 545)"/>
	<rect width="84" height="8" x="188" y="529" fill="#fff" rx="2" transform="rotate(-90 188 529)"/>
	<rect width="84" height="8" x="204" y="461" fill="#fff" rx="2"/>
	<rect width="84" height="8" x="204" y="545" fill="#fff" rx="2" transform="rotate(-90 204 545)"/>
	<rect width="84" height="8" x="220" y="477" fill="#fff" rx="2"/>
	<rect width="84" height="8" x="220" y="561" fill="#fff" rx="2" transform="rotate(-90 220 561)"/>
	<rect width="84" height="8" x="264" y="529" fill="#fff" rx="2" transform="rotate(-90 264 529)"/>
	<rect width="116" height="8" x="156" y="553" fill="#fff" rx="2"/>
	<rect width="124" height="8" x="156" y="569" fill="#fff" rx="2"/>
	<rect width="134" height="8" x="156" y="585" fill="#fff" rx="2"/>
	<rect width="134" height="2" fill="#fff" rx="1" transform="matrix(1 0 0 -1 156 582)"/>
	<rect width="134" height="2" fill="#fff" rx="1" transform="matrix(1 0 0 -1 131 566)"/>
	<rect width="134" height="2" fill="#fff" rx="1" transform="matrix(1 0 0 -1 131 598)"/>
	<rect width="216" height="1" fill="#fff" rx=".5" style="mix-blend-mode:difference"
			transform="matrix(1 0 0 -1 90 595)"/>
	<rect width="216" height="1" fill="#fff" rx=".5" style="mix-blend-mode:difference"
			transform="matrix(1 0 0 -1 90 592)"/>
	<rect width="216" height="1" fill="#fff" rx=".5" style="mix-blend-mode:difference"
			transform="matrix(1 0 0 -1 87 590)"/>
	<rect width="216" height="2" fill="#fff" rx="1" style="mix-blend-mode:difference"
			transform="matrix(1 0 0 -1 87 574)"/>
	<rect width="216" height="1" fill="#fff" rx=".5" style="mix-blend-mode:difference"
			transform="matrix(1 0 0 -1 87 587)"/>
	<rect width="116" height="8" x="156" y="561" fill="#fff" rx="2" transform="rotate(-90 156 561)"/>
	<rect width="8" height="116" x="280" y="429" fill="#fff" rx="2"/>
	<circle cx="78" cy="556" r="5" fill="#fff"/>
	<circle cx="78" cy="546" r="5" fill="#fff"/>
	<circle cx="88" cy="556" r="5" fill="#fff"/>
	<circle cx="88" cy="546" r="5" fill="#fff"/>
	<circle cx="78" cy="556" r="5" fill="#fff"/>
	<circle cx="78" cy="546" r="5" fill="#fff"/>
	<circle cx="88" cy="556" r="5" fill="#fff"/>
	<circle cx="88" cy="546" r="5" fill="#fff"/>
	<circle cx="98" cy="556" r="5" fill="#fff"/>
	<circle cx="98" cy="546" r="5" fill="#fff"/>
	<circle cx="108" cy="556" r="5" fill="#fff"/>
	<circle cx="108" cy="546" r="5" fill="#fff"/>
	<circle cx="98" cy="556" r="5" fill="#fff"/>
	<circle cx="98" cy="546" r="5" fill="#fff"/>
	<circle cx="108" cy="556" r="5" fill="#fff"/>
	<circle cx="108" cy="546" r="5" fill="#fff"/>
	<circle cx="78" cy="536" r="5" fill="#fff"/>
	<circle cx="78" cy="526" r="5" fill="#fff"/>
	<circle cx="88" cy="536" r="5" fill="#fff"/>
	<circle cx="88" cy="526" r="5" fill="#fff"/>
	<circle cx="78" cy="536" r="5" fill="#fff"/>
	<circle cx="78" cy="526" r="5" fill="#fff"/>
	<circle cx="88" cy="536" r="5" fill="#fff"/>
	<circle cx="88" cy="526" r="5" fill="#fff"/>
	<circle cx="98" cy="536" r="5" fill="#fff"/>
	<circle cx="98" cy="526" r="5" fill="#fff"/>
	<circle cx="108" cy="536" r="5" fill="#fff"/>
	<circle cx="108" cy="526" r="5" fill="#fff"/>
	<circle cx="98" cy="536" r="5" fill="#fff"/>
	<circle cx="98" cy="526" r="5" fill="#fff"/>
	<circle cx="108" cy="536" r="5" fill="#fff"/>
	<circle cx="108" cy="526" r="5" fill="#fff"/>
	<circle cx="118" cy="556" r="5" fill="#fff"/>
	<circle cx="118" cy="546" r="5" fill="#fff"/>
	<circle cx="128" cy="556" r="5" fill="#fff"/>
	<circle cx="128" cy="546" r="5" fill="#fff"/>
	<circle cx="118" cy="556" r="5" fill="#fff"/>
	<circle cx="118" cy="546" r="5" fill="#fff"/>
	<circle cx="128" cy="556" r="5" fill="#fff"/>
	<circle cx="128" cy="546" r="5" fill="#fff"/>
	<circle cx="138" cy="556" r="5" fill="#fff"/>
	<circle cx="138" cy="546" r="5" fill="#fff"/>
	<circle cx="148" cy="556" r="5" fill="#fff"/>
	<circle cx="148" cy="546" r="5" fill="#fff"/>
	<circle cx="138" cy="556" r="5" fill="#fff"/>
	<circle cx="138" cy="546" r="5" fill="#fff"/>
	<circle cx="148" cy="556" r="5" fill="#fff"/>
	<circle cx="148" cy="546" r="5" fill="#fff"/>
	<circle cx="118" cy="536" r="5" fill="#fff"/>
	<circle cx="118" cy="526" r="5" fill="#fff"/>
	<circle cx="128" cy="536" r="5" fill="#fff"/>
	<circle cx="128" cy="526" r="5" fill="#fff"/>
	<circle cx="118" cy="536" r="5" fill="#fff"/>
	<circle cx="118" cy="526" r="5" fill="#fff"/>
	<circle cx="128" cy="536" r="5" fill="#fff"/>
	<circle cx="128" cy="526" r="5" fill="#fff"/>
	<circle cx="138" cy="536" r="5" fill="#fff"/>
	<circle cx="138" cy="526" r="5" fill="#fff"/>
	<circle cx="148" cy="536" r="5" fill="#fff"/>
	<circle cx="148" cy="526" r="5" fill="#fff"/>
	<circle cx="138" cy="536" r="5" fill="#fff"/>
	<circle cx="138" cy="526" r="5" fill="#fff"/>
	<circle cx="148" cy="536" r="5" fill="#fff"/>
	<circle cx="148" cy="526" r="5" fill="#fff"/>
	<circle cx="78" cy="515" r="4" fill="#fff"/>
	<circle cx="78" cy="505" r="4" fill="#fff"/>
	<circle cx="88" cy="515" r="4" fill="#fff"/>
	<circle cx="88" cy="505" r="4" fill="#fff"/>
	<circle cx="78" cy="515" r="4" fill="#fff"/>
	<circle cx="78" cy="505" r="4" fill="#fff"/>
	<circle cx="88" cy="515" r="4" fill="#fff"/>
	<circle cx="88" cy="505" r="4" fill="#fff"/>
	<circle cx="98" cy="515" r="4" fill="#fff"/>
	<circle cx="98" cy="505" r="4" fill="#fff"/>
	<circle cx="108" cy="515" r="4" fill="#fff"/>
	<circle cx="108" cy="505" r="4" fill="#fff"/>
	<circle cx="98" cy="515" r="4" fill="#fff"/>
	<circle cx="98" cy="505" r="4" fill="#fff"/>
	<circle cx="108" cy="515" r="4" fill="#fff"/>
	<circle cx="108" cy="505" r="4" fill="#fff"/>
	<circle cx="78" cy="495" r="4" fill="#fff"/>
	<circle cx="78" cy="485" r="4" fill="#fff"/>
	<circle cx="88" cy="495" r="4" fill="#fff"/>
	<circle cx="88" cy="485" r="4" fill="#fff"/>
	<circle cx="78" cy="495" r="4" fill="#fff"/>
	<circle cx="78" cy="485" r="4" fill="#fff"/>
	<circle cx="88" cy="495" r="4" fill="#fff"/>
	<circle cx="88" cy="485" r="4" fill="#fff"/>
	<circle cx="98" cy="495" r="4" fill="#fff"/>
	<circle cx="98" cy="485" r="4" fill="#fff"/>
	<circle cx="108" cy="495" r="4" fill="#fff"/>
	<circle cx="108" cy="485" r="4" fill="#fff"/>
	<circle cx="98" cy="495" r="4" fill="#fff"/>
	<circle cx="98" cy="485" r="4" fill="#fff"/>
	<circle cx="108" cy="495" r="4" fill="#fff"/>
	<circle cx="108" cy="485" r="4" fill="#fff"/>
	<circle cx="118" cy="515" r="4" fill="#fff"/>
	<circle cx="118" cy="505" r="4" fill="#fff"/>
	<circle cx="128" cy="515" r="4" fill="#fff"/>
	<circle cx="128" cy="505" r="4" fill="#fff"/>
	<circle cx="118" cy="515" r="4" fill="#fff"/>
	<circle cx="118" cy="505" r="4" fill="#fff"/>
	<circle cx="128" cy="515" r="4" fill="#fff"/>
	<circle cx="128" cy="505" r="4" fill="#fff"/>
	<circle cx="138" cy="515" r="4" fill="#fff"/>
	<circle cx="138" cy="505" r="4" fill="#fff"/>
	<circle cx="148" cy="515" r="4" fill="#fff"/>
	<circle cx="148" cy="505" r="4" fill="#fff"/>
	<circle cx="138" cy="515" r="4" fill="#fff"/>
	<circle cx="138" cy="505" r="4" fill="#fff"/>
	<circle cx="148" cy="515" r="4" fill="#fff"/>
	<circle cx="148" cy="505" r="4" fill="#fff"/>
	<circle cx="118" cy="495" r="4" fill="#fff"/>
	<circle cx="118" cy="485" r="4" fill="#fff"/>
	<circle cx="128" cy="495" r="4" fill="#fff"/>
	<circle cx="128" cy="485" r="4" fill="#fff"/>
	<circle cx="118" cy="495" r="4" fill="#fff"/>
	<circle cx="118" cy="485" r="4" fill="#fff"/>
	<circle cx="128" cy="495" r="4" fill="#fff"/>
	<circle cx="128" cy="485" r="4" fill="#fff"/>
	<circle cx="138" cy="495" r="4" fill="#fff"/>
	<circle cx="138" cy="485" r="4" fill="#fff"/>
	<circle cx="148" cy="495" r="4" fill="#fff"/>
	<circle cx="148" cy="485" r="4" fill="#fff"/>
	<circle cx="138" cy="495" r="4" fill="#fff"/>
	<circle cx="138" cy="485" r="4" fill="#fff"/>
	<circle cx="148" cy="495" r="4" fill="#fff"/>
	<circle cx="148" cy="485" r="4" fill="#fff"/>
	<circle cx="78" cy="475" r="3" fill="#fff"/>
	<circle cx="78" cy="465" r="3" fill="#fff"/>
	<circle cx="88" cy="475" r="3" fill="#fff"/>
	<circle cx="78" cy="475" r="3" fill="#fff"/>
	<circle cx="78" cy="465" r="3" fill="#fff"/>
	<circle cx="88" cy="475" r="3" fill="#fff"/>
	<circle cx="98" cy="475" r="3" fill="#fff"/>
	<circle cx="108" cy="475" r="3" fill="#fff"/>
	<circle cx="98" cy="475" r="3" fill="#fff"/>
	<circle cx="108" cy="475" r="3" fill="#fff"/>
	<circle cx="78" cy="455" r="3" fill="#fff"/>
	<circle cx="78" cy="445" r="3" fill="#fff"/>
	<circle cx="78" cy="455" r="3" fill="#fff"/>
	<circle cx="78" cy="445" r="3" fill="#fff"/>
	<circle cx="108" cy="455" r="3" fill="#fff"/>
	<circle cx="108" cy="445" r="3" fill="#fff"/>
	<circle cx="108" cy="455" r="3" fill="#fff"/>
	<circle cx="108" cy="445" r="3" fill="#fff"/>
	<circle cx="118" cy="475" r="3" fill="#fff"/>
	<circle cx="128" cy="475" r="3" fill="#fff"/>
	<circle cx="118" cy="475" r="3" fill="#fff"/>
	<circle cx="128" cy="475" r="3" fill="#fff"/>
	<circle cx="138" cy="475" r="3" fill="#fff"/>
	<circle cx="148" cy="475" r="3" fill="#fff"/>
	<circle cx="138" cy="475" r="3" fill="#fff"/>
	<circle cx="148" cy="475" r="3" fill="#fff"/>
	<circle cx="118" cy="455" r="3" fill="#fff"/>
	<circle cx="118" cy="445" r="3" fill="#fff"/>
	<circle cx="128" cy="455" r="3" fill="#fff"/>
	<circle cx="128" cy="445" r="3" fill="#fff"/>
	<circle cx="118" cy="455" r="3" fill="#fff"/>
	<circle cx="118" cy="445" r="3" fill="#fff"/>
	<circle cx="128" cy="455" r="3" fill="#fff"/>
	<circle cx="128" cy="445" r="3" fill="#fff"/>
	<circle cx="138" cy="455" r="3" fill="#fff"/>
	<circle cx="138" cy="445" r="3" fill="#fff"/>
	<circle cx="148" cy="455" r="3" fill="#fff"/>
	<circle cx="148" cy="445" r="3" fill="#fff"/>
	<circle cx="138" cy="455" r="3" fill="#fff"/>
	<circle cx="138" cy="445" r="3" fill="#fff"/>
	<circle cx="148" cy="455" r="3" fill="#fff"/>
	<circle cx="148" cy="445" r="3" fill="#fff"/>
	<circle cx="38" cy="556" r="5" fill="#fff"/>
	<circle cx="38" cy="546" r="5" fill="#fff"/>
	<circle cx="48" cy="556" r="5" fill="#fff"/>
	<circle cx="48" cy="546" r="5" fill="#fff"/>
	<circle cx="38" cy="556" r="5" fill="#fff"/>
	<circle cx="38" cy="546" r="5" fill="#fff"/>
	<circle cx="48" cy="556" r="5" fill="#fff"/>
	<circle cx="48" cy="546" r="5" fill="#fff"/>
	<circle cx="58" cy="556" r="5" fill="#fff"/>
	<circle cx="58" cy="546" r="5" fill="#fff"/>
	<circle cx="68" cy="556" r="5" fill="#fff"/>
	<circle cx="68" cy="546" r="5" fill="#fff"/>
	<circle cx="58" cy="556" r="5" fill="#fff"/>
	<circle cx="58" cy="546" r="5" fill="#fff"/>
	<circle cx="68" cy="556" r="5" fill="#fff"/>
	<circle cx="68" cy="546" r="5" fill="#fff"/>
	<circle cx="38" cy="536" r="5" fill="#fff"/>
	<circle cx="38" cy="526" r="5" fill="#fff"/>
	<circle cx="48" cy="536" r="5" fill="#fff"/>
	<circle cx="48" cy="526" r="5" fill="#fff"/>
	<circle cx="38" cy="536" r="5" fill="#fff"/>
	<circle cx="28" cy="556" r="5" fill="#fff"/>
	<circle cx="28" cy="546" r="5" fill="#fff"/>
	<circle cx="18" cy="556" r="5" fill="#fff"/>
	<circle cx="18" cy="546" r="5" fill="#fff"/>
	<circle cx="28" cy="536" r="5" fill="#fff"/>
	<circle cx="38" cy="526" r="5" fill="#fff"/>
	<circle cx="48" cy="536" r="5" fill="#fff"/>
	<circle cx="48" cy="526" r="5" fill="#fff"/>
	<circle cx="58" cy="536" r="5" fill="#fff"/>
	<circle cx="58" cy="526" r="5" fill="#fff"/>
	<circle cx="68" cy="536" r="5" fill="#fff"/>
	<circle cx="68" cy="526" r="5" fill="#fff"/>
	<circle cx="58" cy="536" r="5" fill="#fff"/>
	<circle cx="58" cy="526" r="5" fill="#fff"/>
	<circle cx="68" cy="536" r="5" fill="#fff"/>
	<circle cx="68" cy="526" r="5" fill="#fff"/>
	<circle cx="38" cy="515" r="4" fill="#fff"/>
	<circle cx="48" cy="515" r="4" fill="#fff"/>
	<circle cx="38" cy="515" r="4" fill="#fff"/>
	<circle cx="48" cy="515" r="4" fill="#fff"/>
	<circle cx="58" cy="515" r="4" fill="#fff"/>
	<circle cx="68" cy="515" r="4" fill="#fff"/>
	<circle cx="58" cy="515" r="4" fill="#fff"/>
	<circle cx="68" cy="515" r="4" fill="#fff"/>
	<circle cx="38" cy="485" r="4" fill="#fff"/>
	<circle cx="48" cy="485" r="4" fill="#fff"/>
	<circle cx="38" cy="485" r="4" fill="#fff"/>
	<circle cx="48" cy="485" r="4" fill="#fff"/>
	<circle cx="58" cy="485" r="4" fill="#fff"/>
	<circle cx="68" cy="485" r="4" fill="#fff"/>
	<circle cx="58" cy="485" r="4" fill="#fff"/>
	<circle cx="68" cy="485" r="4" fill="#fff"/>
	<circle cx="28" cy="475" r="3" fill="#fff"/>
	<circle cx="28" cy="465" r="3" fill="#fff"/>
	<circle cx="28" cy="475" r="3" fill="#fff"/>
	<circle cx="28" cy="465" r="3" fill="#fff"/>
	<circle cx="28" cy="455" r="3" fill="#fff"/>
	<circle cx="28" cy="445" r="3" fill="#fff"/>
	<circle cx="28" cy="455" r="3" fill="#fff"/>
	<circle cx="28" cy="445" r="3" fill="#fff"/>
	<circle cx="38" cy="475" r="3" fill="#fff"/>
	<circle cx="38" cy="465" r="3" fill="#fff"/>
	<circle cx="48" cy="475" r="3" fill="#fff"/>
	<circle cx="48" cy="465" r="3" fill="#fff"/>
	<circle cx="38" cy="475" r="3" fill="#fff"/>
	<circle cx="38" cy="465" r="3" fill="#fff"/>
	<circle cx="48" cy="475" r="3" fill="#fff"/>
	<circle cx="48" cy="465" r="3" fill="#fff"/>
	<circle cx="58" cy="475" r="3" fill="#fff"/>
	<circle cx="58" cy="465" r="3" fill="#fff"/>
	<circle cx="68" cy="475" r="3" fill="#fff"/>
	<circle cx="68" cy="465" r="3" fill="#fff"/>
	<circle cx="58" cy="475" r="3" fill="#fff"/>
	<circle cx="58" cy="465" r="3" fill="#fff"/>
	<circle cx="68" cy="475" r="3" fill="#fff"/>
	<circle cx="68" cy="465" r="3" fill="#fff"/>
	<circle cx="38" cy="455" r="3" fill="#fff"/>
	<circle cx="38" cy="445" r="3" fill="#fff"/>
	<circle cx="48" cy="455" r="3" fill="#fff"/>
	<circle cx="48" cy="445" r="3" fill="#fff"/>
	<circle cx="38" cy="455" r="3" fill="#fff"/>
	<circle cx="38" cy="445" r="3" fill="#fff"/>
	<circle cx="48" cy="455" r="3" fill="#fff"/>
	<circle cx="48" cy="445" r="3" fill="#fff"/>
	<circle cx="58" cy="455" r="3" fill="#fff"/>
	<circle cx="58" cy="445" r="3" fill="#fff"/>
	<circle cx="68" cy="455" r="3" fill="#fff"/>
	<circle cx="68" cy="445" r="3" fill="#fff"/>
	<circle cx="58" cy="455" r="3" fill="#fff"/>
	<circle cx="58" cy="445" r="3" fill="#fff"/>
	<circle cx="68" cy="455" r="3" fill="#fff"/>
	<circle cx="68" cy="445" r="3" fill="#fff"/>
	<circle cx="78" cy="436" r="2" fill="#fff"/>
	<circle cx="78" cy="426" r="2" fill="#fff"/>
	<circle cx="88" cy="436" r="2" fill="#fff"/>
	<circle cx="88" cy="426" r="2" fill="#fff"/>
	<circle cx="78" cy="436" r="2" fill="#fff"/>
	<circle cx="78" cy="426" r="2" fill="#fff"/>
	<circle cx="88" cy="436" r="2" fill="#fff"/>
	<circle cx="88" cy="426" r="2" fill="#fff"/>
	<circle cx="98" cy="436" r="2" fill="#fff"/>
	<circle cx="98" cy="426" r="2" fill="#fff"/>
	<circle cx="108" cy="436" r="2" fill="#fff"/>
	<circle cx="108" cy="426" r="2" fill="#fff"/>
	<circle cx="98" cy="436" r="2" fill="#fff"/>
	<circle cx="98" cy="426" r="2" fill="#fff"/>
	<circle cx="108" cy="436" r="2" fill="#fff"/>
	<circle cx="108" cy="426" r="2" fill="#fff"/>
	<circle cx="78" cy="416" r="2" fill="#fff"/>
	<circle cx="78" cy="406" r="2" fill="#fff"/>
	<circle cx="88" cy="416" r="2" fill="#fff"/>
	<circle cx="88" cy="406" r="2" fill="#fff"/>
	<circle cx="78" cy="416" r="2" fill="#fff"/>
	<circle cx="78" cy="406" r="2" fill="#fff"/>
	<circle cx="88" cy="416" r="2" fill="#fff"/>
	<circle cx="88" cy="406" r="2" fill="#fff"/>
	<circle cx="98" cy="416" r="2" fill="#fff"/>
	<circle cx="98" cy="406" r="2" fill="#fff"/>
	<circle cx="108" cy="416" r="2" fill="#fff"/>
	<circle cx="108" cy="406" r="2" fill="#fff"/>
	<circle cx="98" cy="416" r="2" fill="#fff"/>
	<circle cx="98" cy="406" r="2" fill="#fff"/>
	<circle cx="108" cy="416" r="2" fill="#fff"/>
	<circle cx="108" cy="406" r="2" fill="#fff"/>
	<circle cx="118" cy="436" r="2" fill="#fff"/>
	<circle cx="118" cy="426" r="2" fill="#fff"/>
	<circle cx="128" cy="436" r="2" fill="#fff"/>
	<circle cx="128" cy="426" r="2" fill="#fff"/>
	<circle cx="118" cy="436" r="2" fill="#fff"/>
	<circle cx="118" cy="426" r="2" fill="#fff"/>
	<circle cx="128" cy="436" r="2" fill="#fff"/>
	<circle cx="128" cy="426" r="2" fill="#fff"/>
	<circle cx="138" cy="436" r="2" fill="#fff"/>
	<circle cx="138" cy="426" r="2" fill="#fff"/>
	<circle cx="148" cy="436" r="2" fill="#fff"/>
	<circle cx="148" cy="426" r="2" fill="#fff"/>
	<circle cx="138" cy="436" r="2" fill="#fff"/>
	<circle cx="148" cy="436" r="2" fill="#fff"/>
	<circle cx="118" cy="416" r="2" fill="#fff"/>
	<circle cx="118" cy="406" r="2" fill="#fff"/>
	<circle cx="128" cy="416" r="2" fill="#fff"/>
	<circle cx="128" cy="406" r="2" fill="#fff"/>
	<circle cx="118" cy="416" r="2" fill="#fff"/>
	<circle cx="118" cy="406" r="2" fill="#fff"/>
	<circle cx="128" cy="416" r="2" fill="#fff"/>
	<circle cx="128" cy="406" r="2" fill="#fff"/>
	<circle cx="138" cy="416" r="2" fill="#fff"/>
	<circle cx="138" cy="406" r="2" fill="#fff"/>
	<circle cx="148" cy="416" r="2" fill="#fff"/>
	<circle cx="148" cy="406" r="2" fill="#fff"/>
	<circle cx="138" cy="416" r="2" fill="#fff"/>
	<circle cx="138" cy="406" r="2" fill="#fff"/>
	<circle cx="148" cy="416" r="2" fill="#fff"/>
	<circle cx="148" cy="406" r="2" fill="#fff"/>
	<circle cx="158" cy="426" r="2" fill="#fff"/>
	<circle cx="158" cy="426" r="2" fill="#fff"/>
	<circle cx="158" cy="436" r="2" fill="#fff"/>
	<circle cx="158" cy="416" r="2" fill="#fff"/>
	<circle cx="158" cy="406" r="2" fill="#fff"/>
	<circle cx="158" cy="416" r="2" fill="#fff"/>
	<circle cx="158" cy="406" r="2" fill="#fff"/>
	<circle cx="168" cy="416" r="2" fill="#fff"/>
	<circle cx="178" cy="416" r="2" fill="#fff"/>
	<circle cx="168" cy="416" r="2" fill="#fff"/>
	<circle cx="178" cy="416" r="2" fill="#fff"/>
	<circle cx="28" cy="436" r="2" fill="#fff"/>
	<circle cx="28" cy="426" r="2" fill="#fff"/>
	<circle cx="28" cy="436" r="2" fill="#fff"/>
	<circle cx="28" cy="426" r="2" fill="#fff"/>
	<circle cx="28" cy="416" r="2" fill="#fff"/>
	<circle cx="28" cy="406" r="2" fill="#fff"/>
	<circle cx="28" cy="416" r="2" fill="#fff"/>
	<circle cx="28" cy="406" r="2" fill="#fff"/>
	<circle cx="38" cy="436" r="2" fill="#fff"/>
	<circle cx="38" cy="426" r="2" fill="#fff"/>
	<circle cx="48" cy="436" r="2" fill="#fff"/>
	<circle cx="48" cy="426" r="2" fill="#fff"/>
	<circle cx="38" cy="436" r="2" fill="#fff"/>
	<circle cx="38" cy="426" r="2" fill="#fff"/>
	<circle cx="48" cy="436" r="2" fill="#fff"/>
	<circle cx="48" cy="426" r="2" fill="#fff"/>
	<circle cx="58" cy="436" r="2" fill="#fff"/>
	<circle cx="58" cy="426" r="2" fill="#fff"/>
	<circle cx="68" cy="436" r="2" fill="#fff"/>
	<circle cx="68" cy="426" r="2" fill="#fff"/>
	<circle cx="58" cy="436" r="2" fill="#fff"/>
	<circle cx="58" cy="426" r="2" fill="#fff"/>
	<circle cx="68" cy="436" r="2" fill="#fff"/>
	<circle cx="68" cy="426" r="2" fill="#fff"/>
	<circle cx="38" cy="416" r="2" fill="#fff"/>
	<circle cx="38" cy="406" r="2" fill="#fff"/>
	<circle cx="48" cy="416" r="2" fill="#fff"/>
	<circle cx="48" cy="406" r="2" fill="#fff"/>
	<circle cx="38" cy="416" r="2" fill="#fff"/>
	<circle cx="38" cy="406" r="2" fill="#fff"/>
	<circle cx="48" cy="416" r="2" fill="#fff"/>
	<circle cx="48" cy="406" r="2" fill="#fff"/>
	<circle cx="58" cy="416" r="2" fill="#fff"/>
	<circle cx="58" cy="406" r="2" fill="#fff"/>
	<circle cx="68" cy="416" r="2" fill="#fff"/>
	<circle cx="68" cy="406" r="2" fill="#fff"/>
	<circle cx="58" cy="416" r="2" fill="#fff"/>
	<circle cx="58" cy="406" r="2" fill="#fff"/>
	<circle cx="68" cy="416" r="2" fill="#fff"/>
	<circle cx="68" cy="406" r="2" fill="#fff"/>
	<g fill="#fff" style="mix-blend-mode:difference">
		<circle cx="78" cy="396" r="2"/>
		<circle cx="78" cy="386" r="2"/>
		<circle cx="88" cy="396" r="2"/>
		<circle cx="88" cy="386" r="2"/>
		<circle cx="78" cy="396" r="2"/>
		<circle cx="78" cy="386" r="2"/>
		<circle cx="88" cy="396" r="2"/>
		<circle cx="88" cy="386" r="2"/>
		<circle cx="98" cy="396" r="2"/>
		<circle cx="98" cy="386" r="2"/>
		<circle cx="108" cy="396" r="2"/>
		<circle cx="108" cy="386" r="2"/>
		<circle cx="98" cy="396" r="2"/>
		<circle cx="98" cy="386" r="2"/>
		<circle cx="108" cy="396" r="2"/>
		<circle cx="108" cy="386" r="2"/>
		<circle cx="78" cy="376" r="2"/>
		<circle cx="78" cy="366" r="2"/>
		<circle cx="88" cy="376" r="2"/>
		<circle cx="88" cy="366" r="2"/>
		<circle cx="78" cy="376" r="2"/>
		<circle cx="78" cy="366" r="2"/>
		<circle cx="88" cy="376" r="2"/>
		<circle cx="88" cy="366" r="2"/>
		<circle cx="98" cy="376" r="2"/>
		<circle cx="98" cy="366" r="2"/>
		<circle cx="108" cy="376" r="2"/>
		<circle cx="108" cy="366" r="2"/>
		<circle cx="98" cy="376" r="2"/>
		<circle cx="98" cy="366" r="2"/>
		<circle cx="108" cy="376" r="2"/>
		<circle cx="108" cy="366" r="2"/>
		<circle cx="118" cy="396" r="2"/>
		<circle cx="118" cy="386" r="2"/>
		<circle cx="128" cy="396" r="2"/>
		<circle cx="128" cy="386" r="2"/>
		<circle cx="118" cy="396" r="2"/>
		<circle cx="118" cy="386" r="2"/>
		<circle cx="128" cy="396" r="2"/>
		<circle cx="128" cy="386" r="2"/>
		<circle cx="138" cy="396" r="2"/>
		<circle cx="138" cy="386" r="2"/>
		<circle cx="148" cy="396" r="2"/>
		<circle cx="148" cy="386" r="2"/>
		<circle cx="138" cy="396" r="2"/>
		<circle cx="138" cy="386" r="2"/>
		<circle cx="148" cy="396" r="2"/>
		<circle cx="148" cy="386" r="2"/>
		<circle cx="118" cy="376" r="2"/>
		<circle cx="118" cy="366" r="2"/>
		<circle cx="128" cy="376" r="2"/>
		<circle cx="128" cy="366" r="2"/>
		<circle cx="118" cy="376" r="2"/>
		<circle cx="118" cy="366" r="2"/>
		<circle cx="128" cy="376" r="2"/>
		<circle cx="128" cy="366" r="2"/>
		<circle cx="138" cy="376" r="2"/>
		<circle cx="138" cy="366" r="2"/>
		<circle cx="148" cy="376" r="2"/>
		<circle cx="148" cy="366" r="2"/>
		<circle cx="138" cy="376" r="2"/>
		<circle cx="138" cy="366" r="2"/>
		<circle cx="148" cy="376" r="2"/>
		<circle cx="148" cy="366" r="2"/>
		<circle cx="28" cy="396" r="2"/>
		<circle cx="28" cy="386" r="2"/>
		<circle cx="28" cy="396" r="2"/>
		<circle cx="28" cy="386" r="2"/>
		<circle cx="28" cy="376" r="2"/>
		<circle cx="28" cy="366" r="2"/>
		<circle cx="28" cy="376" r="2"/>
		<circle cx="28" cy="366" r="2"/>
		<circle cx="38" cy="396" r="2"/>
		<circle cx="38" cy="386" r="2"/>
		<circle cx="48" cy="396" r="2"/>
		<circle cx="48" cy="386" r="2"/>
		<circle cx="38" cy="396" r="2"/>
		<circle cx="38" cy="386" r="2"/>
		<circle cx="48" cy="396" r="2"/>
		<circle cx="48" cy="386" r="2"/>
		<circle cx="58" cy="396" r="2"/>
		<circle cx="58" cy="386" r="2"/>
		<circle cx="68" cy="396" r="2"/>
		<circle cx="68" cy="386" r="2"/>
		<circle cx="58" cy="396" r="2"/>
		<circle cx="58" cy="386" r="2"/>
		<circle cx="68" cy="396" r="2"/>
		<circle cx="68" cy="386" r="2"/>
		<circle cx="38" cy="376" r="2"/>
		<circle cx="38" cy="366" r="2"/>
		<circle cx="48" cy="376" r="2"/>
		<circle cx="48" cy="366" r="2"/>
		<circle cx="38" cy="376" r="2"/>
		<circle cx="38" cy="366" r="2"/>
		<circle cx="48" cy="376" r="2"/>
		<circle cx="48" cy="366" r="2"/>
		<circle cx="58" cy="376" r="2"/>
		<circle cx="58" cy="366" r="2"/>
		<circle cx="68" cy="376" r="2"/>
		<circle cx="68" cy="366" r="2"/>
		<circle cx="58" cy="376" r="2"/>
		<circle cx="58" cy="366" r="2"/>
		<circle cx="68" cy="376" r="2"/>
		<circle cx="68" cy="366" r="2"/>
	</g>
	<g fill="#fff" style="mix-blend-mode:difference">
		<circle cx="78" cy="356" r="2"/>
		<circle cx="78" cy="346" r="2"/>
		<circle cx="88" cy="356" r="2"/>
		<circle cx="88" cy="346" r="2"/>
		<circle cx="78" cy="356" r="2"/>
		<circle cx="78" cy="346" r="2"/>
		<circle cx="88" cy="356" r="2"/>
		<circle cx="88" cy="346" r="2"/>
		<circle cx="98" cy="356" r="2"/>
		<circle cx="98" cy="346" r="2"/>
		<circle cx="108" cy="356" r="2"/>
		<circle cx="108" cy="346" r="2"/>
		<circle cx="98" cy="356" r="2"/>
		<circle cx="98" cy="346" r="2"/>
		<circle cx="108" cy="356" r="2"/>
		<circle cx="108" cy="346" r="2"/>
		<circle cx="78" cy="336" r="2"/>
		<circle cx="78" cy="326" r="2"/>
		<circle cx="88" cy="336" r="2"/>
		<circle cx="88" cy="326" r="2"/>
		<circle cx="78" cy="336" r="2"/>
		<circle cx="78" cy="326" r="2"/>
		<circle cx="88" cy="336" r="2"/>
		<circle cx="88" cy="326" r="2"/>
		<circle cx="98" cy="336" r="2"/>
		<circle cx="98" cy="326" r="2"/>
		<circle cx="108" cy="336" r="2"/>
		<circle cx="108" cy="326" r="2"/>
		<circle cx="98" cy="336" r="2"/>
		<circle cx="98" cy="326" r="2"/>
		<circle cx="108" cy="336" r="2"/>
		<circle cx="108" cy="326" r="2"/>
		<circle cx="118" cy="356" r="2"/>
		<circle cx="118" cy="346" r="2"/>
		<circle cx="128" cy="356" r="2"/>
		<circle cx="128" cy="346" r="2"/>
		<circle cx="118" cy="356" r="2"/>
		<circle cx="118" cy="346" r="2"/>
		<circle cx="128" cy="356" r="2"/>
		<circle cx="128" cy="346" r="2"/>
		<circle cx="138" cy="356" r="2"/>
		<circle cx="138" cy="346" r="2"/>
		<circle cx="148" cy="356" r="2"/>
		<circle cx="148" cy="346" r="2"/>
		<circle cx="138" cy="356" r="2"/>
		<circle cx="138" cy="346" r="2"/>
		<circle cx="148" cy="356" r="2"/>
		<circle cx="148" cy="346" r="2"/>
		<circle cx="118" cy="336" r="2"/>
		<circle cx="118" cy="326" r="2"/>
		<circle cx="128" cy="336" r="2"/>
		<circle cx="128" cy="326" r="2"/>
		<circle cx="118" cy="336" r="2"/>
		<circle cx="118" cy="326" r="2"/>
		<circle cx="128" cy="336" r="2"/>
		<circle cx="128" cy="326" r="2"/>
		<circle cx="138" cy="336" r="2"/>
		<circle cx="138" cy="326" r="2"/>
		<circle cx="148" cy="336" r="2"/>
		<circle cx="148" cy="326" r="2"/>
		<circle cx="138" cy="336" r="2"/>
		<circle cx="138" cy="326" r="2"/>
		<circle cx="148" cy="336" r="2"/>
		<circle cx="148" cy="326" r="2"/>
		<circle cx="28" cy="356" r="2"/>
		<circle cx="28" cy="346" r="2"/>
		<circle cx="28" cy="356" r="2"/>
		<circle cx="28" cy="346" r="2"/>
		<circle cx="28" cy="336" r="2"/>
		<circle cx="28" cy="326" r="2"/>
		<circle cx="28" cy="336" r="2"/>
		<circle cx="28" cy="326" r="2"/>
		<circle cx="38" cy="356" r="2"/>
		<circle cx="38" cy="346" r="2"/>
		<circle cx="48" cy="356" r="2"/>
		<circle cx="48" cy="346" r="2"/>
		<circle cx="38" cy="356" r="2"/>
		<circle cx="38" cy="346" r="2"/>
		<circle cx="48" cy="356" r="2"/>
		<circle cx="48" cy="346" r="2"/>
		<circle cx="58" cy="356" r="2"/>
		<circle cx="58" cy="346" r="2"/>
		<circle cx="68" cy="356" r="2"/>
		<circle cx="68" cy="346" r="2"/>
		<circle cx="58" cy="356" r="2"/>
		<circle cx="58" cy="346" r="2"/>
		<circle cx="68" cy="356" r="2"/>
		<circle cx="68" cy="346" r="2"/>
		<circle cx="38" cy="336" r="2"/>
		<circle cx="38" cy="326" r="2"/>
		<circle cx="48" cy="336" r="2"/>
		<circle cx="48" cy="326" r="2"/>
		<circle cx="38" cy="336" r="2"/>
		<circle cx="38" cy="326" r="2"/>
		<circle cx="48" cy="336" r="2"/>
		<circle cx="48" cy="326" r="2"/>
		<circle cx="58" cy="336" r="2"/>
		<circle cx="58" cy="326" r="2"/>
		<circle cx="68" cy="336" r="2"/>
		<circle cx="68" cy="326" r="2"/>
		<circle cx="58" cy="336" r="2"/>
		<circle cx="58" cy="326" r="2"/>
		<circle cx="68" cy="336" r="2"/>
		<circle cx="68" cy="326" r="2"/>
	</g>
	<path fill="#fff"
			d="M244 475.93c.2-2.47 3.8-2.47 4 0l1.65 21.58a2 2 0 0 0 1.84 1.84l21.58 1.66c2.47.19 2.47 3.8 0 3.98l-21.58 1.66a2 2 0 0 0-1.84 1.84L248 530.07c-.19 2.46-3.8 2.46-3.98 0l-1.66-21.58a2 2 0 0 0-1.84-1.84L218.93 505c-2.47-.19-2.47-3.8 0-3.98l21.58-1.66a2 2 0 0 0 1.84-1.84l1.66-21.58Z"
			style="mix-blend-mode:difference"/>
	<rect width="9" height="9" x="226" y="364" fill="#fff" rx="2"/>
	<rect width="9" height="9" x="237" y="364" fill="#fff" rx="2"/>
	<rect width="9" height="9" x="226" y="353" fill="#fff" rx="2"/>
	<rect width="4" height="4" x="226" y="347" fill="#fff" rx="2"/>
	<rect width="4" height="4" x="231" y="347" fill="#fff" rx="2"/>
	<rect width="4" height="4" x="237" y="347" fill="#fff" rx="2"/>
	<rect width="4" height="4" x="242" y="347" fill="#fff" rx="2"/>
	<rect width="4" height="4" x="226" y="342" fill="#fff" rx="2"/>
	<rect width="4" height="4" x="231" y="342" fill="#fff" rx="2"/>
	<rect width="4" height="4" x="237" y="342" fill="#fff" rx="2"/>
	<rect width="4" height="4" x="242" y="342" fill="#fff" rx="2"/>
	<rect width="4" height="4" x="226" y="347" fill="#fff" rx="2"/>
	<rect width="4" height="4" x="231" y="347" fill="#fff" rx="2"/>
	<rect width="4" height="4" x="237" y="347" fill="#fff" rx="2"/>
	<rect width="4" height="4" x="242" y="347" fill="#fff" rx="2"/>
	<rect width="4" height="4" x="226" y="342" fill="#fff" rx="2"/>
	<rect width="4" height="4" x="231" y="342" fill="#fff" rx="2"/>
	<rect width="4" height="4" x="237" y="342" fill="#fff" rx="2"/>
	<rect width="4" height="4" x="242" y="342" fill="#fff" rx="2"/>
	<rect width="4" height="4" x="226" y="336" fill="#fff" rx="2"/>
	<rect width="4" height="4" x="231" y="336" fill="#fff" rx="2"/>
	<rect width="4" height="4" x="237" y="336" fill="#fff" rx="2"/>
	<rect width="4" height="4" x="242" y="336" fill="#fff" rx="2"/>
	<rect width="4" height="4" x="226" y="331" fill="#fff" rx="2"/>
	<rect width="4" height="4" x="231" y="331" fill="#fff" rx="2"/>
	<rect width="4" height="4" x="237" y="331" fill="#fff" rx="2"/>
	<rect width="4" height="4" x="242" y="331" fill="#fff" rx="2"/>
	<rect width="4" height="4" x="247" y="391" fill="#fff" rx="2"/>
	<rect width="4" height="4" x="252" y="391" fill="#fff" rx="2"/>
	<rect width="4" height="4" x="258" y="391" fill="#fff" rx="2"/>
	<rect width="4" height="4" x="263" y="391" fill="#fff" rx="2"/>
	<rect width="4" height="4" x="247" y="386" fill="#fff" rx="2"/>
	<rect width="4" height="4" x="252" y="386" fill="#fff" rx="2"/>
	<rect width="4" height="4" x="258" y="386" fill="#fff" rx="2"/>
	<rect width="4" height="4" x="263" y="386" fill="#fff" rx="2"/>
	<rect width="4" height="4" x="247" y="380" fill="#fff" rx="2"/>
	<rect width="4" height="4" x="252" y="380" fill="#fff" rx="2"/>
	<rect width="4" height="4" x="258" y="380" fill="#fff" rx="2"/>
	<rect width="4" height="4" x="263" y="380" fill="#fff" rx="2"/>
	<rect width="4" height="4" x="247" y="375" fill="#fff" rx="2"/>
	<rect width="4" height="4" x="252" y="375" fill="#fff" rx="2"/>
	<rect width="4" height="4" x="258" y="375" fill="#fff" rx="2"/>
	<rect width="4" height="4" x="247" y="369" fill="#fff" rx="2"/>
	<rect width="4" height="4" x="252" y="369" fill="#fff" rx="2"/>
	<rect width="4" height="4" x="258" y="369" fill="#fff" rx="2"/>
	<rect width="4" height="4" x="247" y="364" fill="#fff" rx="2"/>
	<rect width="4" height="4" x="252" y="364" fill="#fff" rx="2"/>
	<rect width="4" height="4" x="258" y="364" fill="#fff" rx="2"/>
	<rect width="4" height="4" x="247" y="358" fill="#fff" rx="2"/>
	<rect width="4" height="4" x="252" y="358" fill="#fff" rx="2"/>
	<rect width="4" height="4" x="247" y="353" fill="#fff" rx="2"/>
	<rect width="4" height="4" x="252" y="353" fill="#fff" rx="2"/>
	<rect width="9" height="9" x="237" y="353" fill="#fff" rx="2"/>
	<rect width="20" height="20" x="204" y="375" fill="#fff" rx="2" style="mix-blend-mode:exclusion"/>
	<rect width="20" height="20" x="204" y="353" fill="#fff" rx="2" style="mix-blend-mode:exclusion"/>
	<rect width="20" height="20" x="182" y="375" fill="#fff" rx="2" style="mix-blend-mode:exclusion"/>
	<g fill="#000" clip-path="url(#a)">
		<path
			d="m190.11 381.14 1.64-.02c.1 0 .13-.02.13-.12v-.58c0-.13 0-.14.13-.14h1.54c.1 0 .12.05.12.13v.5c0 .25-.03.23.23.23h4.04c.18 0 .17 0 .18.16v2.32c0 .06.04.08.1.08h.69c.07 0 .09.04.09.1v.66c0 .07-.03.1-.1.1h-.63c-.15 0-.16 0-.16.15v1.48c0 .07-.02.1-.09.09h-.62c-.17 0-.17-.01-.17.16v1.37c0 .19 0 .18-.18.18h-2.4c-.07 0-.1-.03-.09-.09v-.64c0-.09-.02-.13-.12-.13h-.62c-.14 0-.15 0-.15-.14v-.6c0-.08-.02-.11-.11-.11h-.67c-.09 0-.11.04-.1.11v.63c0 .09-.03.12-.13.12h-.6c-.18 0-.17 0-.17.17v.57c0 .09-.02.12-.11.12h-.56c-.25 0-.21-.03-.22.22v.53c0 .08-.02.11-.1.1h-.16l-.6.03-.02.6v.12c0 .09-.03.11-.12.11h-5.22l-1.62-.01c-.14 0-.14 0-.14-.15v-3.1c0-.15 0-.15.16-.15l1.44-.03c.15 0 .16 0 .16-.15v-.54c0-.14 0-.14.14-.15h.98l1.38-.01c.16 0 .16 0 .16-.15v-.58c0-.1.03-.13.13-.12h.64c.1 0 .13-.03.13-.12v-.54c0-.22-.02-.2.2-.2h.55c.13 0 .13 0 .13-.13l.02-1.33v-.15c0-.08.03-.1.1-.1h.58c.2 0 .2 0 .2-.18v-.69.01Z"/>
		<path
			d="M223 380.27v3.26c0 .17 0 .17-.17.17h-.56c-.16 0-.16 0-.16.15v.6c0 .08-.03.11-.11.11h-.67c-.09 0-.12.03-.12.11v.63c0 .1-.03.12-.12.11h-.54c-.24 0-.22-.01-.22.23v.47c0 .16.01.17-.16.17h-.54c-.2 0-.18-.01-.18.19v1.39c0 .13 0 .13-.14.13h-.62c-.13 0-.13.01-.13.14v.62c0 .07-.02.1-.1.1h-1.58c-.08 0-.1-.03-.1-.1v-.15l-.02-2.14c0-.18.02-.17-.18-.17h-.54c-.14 0-.14 0-.14-.15v-1.45c0-.1-.04-.13-.13-.13h-1.36c-.2 0-.3-.1-.3-.3v-.44c0-.08-.03-.11-.11-.11h-.63c-.14 0-.15 0-.15-.14v-.62c0-.07.03-.1.1-.1h.14l.63-.02.02-.6v-.13c0-.08.03-.1.12-.1h.62c.15 0 .15-.01.15-.14v-.6c0-.1.03-.13.13-.13h.62c.13 0 .14 0 .14-.12v-.63c0-.08.03-.11.12-.1h4.11c.24 0 .22.02.22-.22v-2.17c0-.2-.02-.18.2-.18h.55c.13 0 .13 0 .13-.14l.02-1.3v-.15c0-.08.01-.12.1-.12h.65c.1 0 .12.04.12.12v.57c0 .15 0 .15.14.15h.58c.16 0 .16 0 .17.17v3.26h-.01Z"/>
		<path
			d="M191 394h-7.77c-.25 0-.23.03-.23-.21v-3.11c0-.09.03-.11.12-.11h2.84l1.33.01c.14 0 .14 0 .14.13v.6c0 .1.04.12.13.12h1.54c.13 0 .14 0 .14-.13v-.6c0-.1.03-.12.12-.12l1.42-.01c.25 0 .22.02.23-.22v-.54c0-.07.02-.1.1-.1h.62c.16 0 .16 0 .16-.15v-.6c0-.08.03-.11.12-.1h.58c.2 0 .2 0 .2-.19v-.58c0-.07.03-.1.1-.1h.67c.1 0 .12.05.12.13v.62c0 .09.03.12.11.11h.62c.15 0 .15 0 .15.14v.54c0 .2-.01.19.2.19h1.34c.27 0 .24-.04.24.22v.5c0 .12 0 .13.13.13h.63c.12 0 .13 0 .13.13v.6c0 .1.02.13.12.13h.6c.18 0 .17 0 .17.16l-.02 1.3c0 .28-.03.25.25.25h.56c.07 0 .1.03.1.1v.66c0 .08-.04.1-.11.1H191Z"/>
		<path
			d="M199.9 384.14v-1.93c0-.05-.02-.1 0-.15 0-.03.04-.06.06-.06h.74c.07 0 .08.03.08.09v.62c0 .14 0 .14.15.14h.62c.08 0 .12.03.12.11v.6c0 .16 0 .16.15.16h.6c.1 0 .13.03.13.13v.5c0 .23-.02.22.2.22h.59c.08 0 .11.04.11.12v.62c0 .08.03.1.12.1l2.6.01h.66c.17 0 .17 0 .17-.16v-.58c0-.08.03-.11.12-.11h.6c.18 0 .19 0 .19-.17v-.54c0-.13 0-.13.15-.14l1.4-.02h.04c.16 0 .16 0 .16-.15V383c0-.13 0-.14.15-.14h1.51c.1 0 .12.05.12.14l.01.9v3.1c0 .14 0 .15-.14.15h-.63c-.1 0-.12.03-.12.12v.6c0 .13 0 .13-.13.14h-.62c-.13 0-.14 0-.14.13v.56c0 .16.01.17-.16.17h-1.31c-.2 0-.3.1-.3.29v.47c0 .06-.03.1-.1.1h-3.37c-.07 0-.09-.04-.09-.1v-.6c0-.16.01-.16-.17-.16h-1.51c-.08 0-.1-.04-.1-.1v-.65c0-.08-.02-.11-.1-.11h-3.35c-.09 0-.12-.03-.11-.11v-1.4c.01-.22-.02-.2.23-.2h.53c.09 0 .13-.02.13-.12v-2.04Z"/>
		<path
			d="M208.78 394h-2.43c-.26 0-.23.03-.23-.24v-2.27c0-.02.04-.05.07-.06h1.51c.22 0 .2.01.2-.2v-.43c0-.26-.04-.22.24-.23h1.29c.28 0 .25.03.25-.24v-.51c0-.07.02-.1.1-.1h.64c.14 0 .14 0 .14-.14v-.62c0-.08.03-.1.12-.1h.64c.1 0 .13-.03.13-.13v-.62c0-.1.03-.12.13-.12h.62c.13 0 .14 0 .14-.13v-.6c0-.12 0-.12.14-.12h.62c.13 0 .13 0 .13-.14v-.58c0-.13 0-.13.13-.13h.65c.07 0 .1.02.1.1v.64c0 .08.03.1.11.1h.67c.09 0 .12.04.12.12v.58c0 .16-.02.17.16.16h.6c.1 0 .13.04.12.13v1.48c0 .08-.02.1-.11.1h-.53c-.28 0-.24-.03-.25.25v.51c0 .08-.02.1-.1.1h-.62c-.16 0-.17 0-.17.17v.56c0 .12 0 .13-.14.13h-1.51c-.1 0-.13.03-.12.12v.56c0 .2.01.18-.2.18h-.53c-.16 0-.16 0-.16.15v1.33c0 .27.03.23-.25.24h-2.42Z"/>
		<path
			d="M197.67 380.28h-3.02c-.07 0-.1-.03-.1-.1v-.64c.02-.09-.02-.12-.12-.12h-.62c-.14 0-.14 0-.14-.15v-.6c0-.08-.03-.11-.11-.1h-.63c-.15-.01-.15-.01-.15-.17v-.55c0-.14 0-.15-.15-.15h-1.38c-.29 0-.25.04-.25-.25v-.47c0-.14 0-.14.15-.14h1.4c.25-.01.23.02.23-.23v-.49c0-.08.02-.12.11-.12h.67c.08 0 .1.04.1.1v.56c0 .17 0 .17.17.18h.88l2.3.02h.1c.08 0 .1.03.1.1v.62c0 .08.03.12.12.12h1.55c.1 0 .12-.05.12-.12v-.56c0-.18 0-.18.18-.18h.6c.08 0 .11-.04.11-.12v-.58c0-.13 0-.13.13-.13h2.4c.1 0 .13.03.13.12v.55c0 .16 0 .16.16.16h.57c.15 0 .16 0 .16.14l-.01 1.46c0 .08-.04.1-.12.1l-1.4.02h-.15c-.07 0-.1.02-.1.09v.62c0 .14 0 .14-.13.15h-.63c-.1 0-.13.03-.12.12v.6c0 .13 0 .13-.14.13h-2.97Z"/>
		<path
			d="M211.9 376h2.05c.16 0 .17 0 .17.15v.56c0 .1.03.12.13.12h.64c.08 0 .1-.02.1-.1v-.6c0-.13.01-.13.14-.13h1.52c.13 0 .13 0 .13.13v.58c0 .1.04.13.13.13h1.27l1.13.01c.09 0 .13.02.13.12v.6c0 .12 0 .12-.14.13h-.62c-.09 0-.12.02-.12.1v.6c0 .16 0 .16-.16.16h-2.37c-.13 0-.13 0-.13.13v.56c0 .17 0 .17-.17.17h-1.38c-.25.01-.22-.02-.22.22l-.02 1.35c0 .13 0 .14-.13.14h-.63c-.1 0-.12-.04-.12-.13v-1.41c0-.18 0-.17-.19-.17h-.6c-.07 0-.1-.03-.1-.1v-.56c0-.22.02-.2-.22-.2h-.5c-.19 0-.18.01-.18-.19v-.5c0-.16.01-.16-.17-.16h-1.37c-.25 0-.23.02-.23-.22l.02-1.35c0-.13 0-.13.13-.13h2.09Z"/>
		<path
			d="M190.12 381.13h-2.51c-.15 0-.15-.01-.15-.15v-.49c0-.24.02-.21-.23-.21h-1.33c-.26 0-.23.02-.23-.22v-.45c0-.21.01-.2-.2-.2h-.54c-.15 0-.15 0-.15-.13v-.52c0-.2.02-.2-.2-.2h-.55c-.1 0-.14-.02-.14-.11v-1.46c0-.16 0-.16.17-.16h1.49c.09 0 .12-.03.12-.1v-.59c0-.14 0-.14.15-.14h3.26c.13 0 .13.01.13.14l.03 1.39c0 .17 0 .17.16.17h.58c.1 0 .13.03.13.12v3.32h.01Z"/>
		<path
			d="M211.45 380.72v1.13c0 .13 0 .14-.13.14h-1.54c-.07 0-.1-.03-.1-.1v-.6c0-.16 0-.16-.16-.16h-1.49c-.1 0-.13-.03-.13-.13v-.57c0-.15 0-.15-.16-.15h-2.42c-.07 0-.1-.04-.1-.1v-.64c.01-.1-.02-.13-.12-.13h-.64c-.1.01-.13-.03-.13-.12v-1.45c0-.13 0-.13.14-.14h.62c.13 0 .13 0 .13-.13v-.6c0-.13 0-.14.14-.14h.6c.15 0 .15 0 .16-.15v-.56c0-.08.01-.12.1-.12h.65c.09 0 .12.02.12.11v.58c0 .15 0 .16.15.16h.63c.1 0 .12.03.12.12v.6c0 .14 0 .14.15.14h.62c.1 0 .12.03.12.11v.6c0 .13 0 .13.14.13l1.35.02h.16c.1-.01.13.02.13.12v.62c0 .09.03.12.12.12h.65c.08 0 .11.03.11.11v1.18h.01Z"/>
		<path
			d="M217.66 394h-4.2c-.26 0-.22.02-.23-.24v-.51c0-.08.03-.1.1-.1h.65c.13 0 .13 0 .13-.14v-.6c0-.12.01-.12.14-.13h.63c.09 0 .13-.02.13-.11v-.6c0-.14 0-.14.15-.14h.55c.2 0 .19 0 .19-.2v-.53c0-.09.02-.13.12-.13h2.42c.09 0 .12.02.12.1v.6c0 .17 0 .17.17.17h.58c.1 0 .13.03.13.12v.52c0 .23-.02.21.23.21h.55c.09 0 .12.03.12.11v.54c0 .21 0 .2.21.2h1.4c.16.01.16.01.16.16v.56c0 .13 0 .13-.13.13h-4.31Z"/>
		<path
			d="M204.33 392.28v1.59c0 .12 0 .12-.14.12h-2.38c-.13 0-.13 0-.13-.13v-.62c0-.07-.03-.1-.1-.1h-.67c-.1 0-.13-.03-.13-.12v-.56c0-.18.01-.18-.17-.18h-.6c-.1 0-.12-.03-.12-.1v-.65c0-.09-.03-.11-.11-.11h-.63c-.13 0-.14 0-.14-.13v-1.45c0-.14 0-.14.15-.14h.62c.08 0 .1-.03.1-.1v-.6c0-.14 0-.14.13-.14h.65c.1 0 .12.04.12.12v.5c0 .26-.03.23.23.23h1.38c.17 0 .17 0 .17.17v.56c0 .13 0 .13.13.13h1.49c.14.01.15.01.15.15v1.56Z"/>
		<path
			d="M183.01 382.42v-1.97c0-.16 0-.16.17-.16h1.4c.22 0 .2-.02.2.2v.53c0 .1.03.12.13.12h1.4c.28 0 .24-.04.24.24v.45c0 .16 0 .16.17.16h.62c.07 0 .1.03.1.1v1.52c0 .08-.04.1-.11.1h-1.4c-.3 0-.26-.04-.26.24v.5c0 .1-.04.12-.13.12h-2.36c-.19 0-.18 0-.18-.18v-1.97h.01Z"/>
		<path
			d="M205.21 383.7h-1.55c-.24 0-.21.03-.21-.2v-.54c0-.08-.03-.11-.12-.11h-.6c-.19 0-.17 0-.17-.18v-2.27c0-.1.02-.13.12-.12h1.53c.09 0 .12.03.12.11v.6c0 .14 0 .15.15.15h2.24c.19 0 .28.09.28.27v.45c0 .13 0 .13.14.13l1.22.01h.31c.08 0 .1.03.1.1v.62c0 .1-.03.13-.12.13h-1.43c-.25 0-.22-.02-.22.22v.5c0 .13 0 .14-.14.14h-1.66Z"/>
		<path
			d="M223 388.45v2.89c0 .06-.04.09-.1.08h-1.49c-.2 0-.18.02-.18-.19v-.55c0-.08-.03-.11-.12-.11h-.62c-.15 0-.15 0-.15-.14v-1.45c0-.1.03-.13.13-.13h.53c.24 0 .22.02.22-.2v-2.27c0-.08.04-.1.11-.1h.67c.1 0 .12-.03.12-.12v-.62c0-.09.03-.11.12-.11h.64c.1 0 .12.04.12.13v2.89Z"/>
	</g>
	<rect width="9" height="9" x="171" y="386" fill="#fff" rx="2" style="mix-blend-mode:exclusion"/>
	<rect width="9" height="9" x="160" y="386" fill="#fff" rx="2" style="mix-blend-mode:exclusion"/>
	<rect width="20" height="20" x="182" y="353" fill="#fff" rx="2" style="mix-blend-mode:exclusion"/>
	<rect width="20" height="20" x="204" y="331" fill="#fff" rx="2" style="mix-blend-mode:exclusion"/>
	<rect width="20" height="20" x="226" y="375" fill="#fff" rx="2" style="mix-blend-mode:exclusion"/>
	<rect width="2" height="2" x="227" y="376" fill="#fff" rx="1" style="mix-blend-mode:exclusion"/>
	<rect width="2" height="2" x="243" y="376" fill="#fff" rx="1" style="mix-blend-mode:exclusion"/>
	<rect width="1" height="8" x="244" y="379" fill="#fff" rx=".5" style="mix-blend-mode:exclusion"/>
	<rect width="2" height="2" x="239" y="382" fill="#fff" rx="1" style="mix-blend-mode:exclusion"/>
	<rect width="2" height="2" x="243" y="392" fill="#fff" rx="1" style="mix-blend-mode:exclusion"/>
	<rect width="2" height="2" x="227" y="392" fill="#fff" rx="1" style="mix-blend-mode:exclusion"/>
	<rect width="2" height="2" x="229" y="378" fill="#fff" rx="1" style="mix-blend-mode:exclusion"/>
	<rect width="2" height="2" x="231" y="378" fill="#fff" rx="1" style="mix-blend-mode:exclusion"/>
	<rect width="2" height="2" x="230" y="379" fill="#fff" rx="1" style="mix-blend-mode:exclusion"/>
	<rect width="3" height="3" x="227" y="380" fill="#fff" rx="1.5" style="mix-blend-mode:exclusion"/>
	<rect width="3" height="3" x="229" y="382" fill="#fff" rx="1.5" style="mix-blend-mode:exclusion"/>
	<rect width="3" height="3" x="232" y="378" fill="#fff" rx="1.5" style="mix-blend-mode:exclusion"/>
	<rect width="12" height="2" x="230" y="376" fill="#fff" rx="1" style="mix-blend-mode:exclusion"/>
	<rect width="3" height="3" x="228" y="390" fill="#fff" rx="1.5" style="mix-blend-mode:exclusion"/>
	<rect width="14" height="1" x="230" y="392" fill="#fff" rx=".5" style="mix-blend-mode:exclusion"/>
	<rect width="14" height="1" x="229" y="390" fill="#fff" rx=".5" style="mix-blend-mode:exclusion"/>
	<rect width="7" height="14" x="235" y="380" fill="#fff" rx="2" style="mix-blend-mode:exclusion"/>
	<rect width="3" height="2" x="235" y="389" fill="#fff" rx="1" style="mix-blend-mode:exclusion"
			transform="rotate(180 235 389)"/>
	<rect width="3" height="4" x="233" y="388" fill="#fff" rx="1.5" style="mix-blend-mode:exclusion"
			transform="rotate(180 233 388)"/>
	<rect width="5" height="1" fill="#fff" rx=".5" style="mix-blend-mode:exclusion"
			transform="matrix(1 0 0 -1 240 388)"/>
	<rect width="3" height="1" fill="#fff" rx=".5" style="mix-blend-mode:exclusion"
			transform="matrix(1 0 0 -1 241 389)"/>
	<rect width="1" height="3" fill="#fff" rx=".5" style="mix-blend-mode:exclusion"
			transform="matrix(1 0 0 -1 236 389)"/>
	<rect width="1" height="10" fill="#fff" rx=".5" style="mix-blend-mode:exclusion"
			transform="matrix(1 0 0 -1 238 389)"/>
	<rect width="3" height="2" x="231" y="389" fill="#fff" rx="1" style="mix-blend-mode:exclusion"
			transform="rotate(180 231 389)"/>
	<rect width="7" height="7" x="236" y="378" fill="#fff" rx="2" style="mix-blend-mode:exclusion"/>
	<path fill="#fff"
			d="M20 435.25v-13c0-1.1.9-2 2-2h5.22c.28 0 .28 0 .28-.26v-3.19c0-.3 0-.3.3-.3h14.48c.22 0 .22 0 .22-.22V413c0-.27-.02-.25.25-.25h7.13c.1 0 .13-.04.12-.13v-10.97c.02-.13-.05-.15-.16-.15h-3.37c-.21 0-.21 0-.22-.23v-6.99c0-.27 0-.28-.26-.28H42.9c-.26 0-.4-.13-.4-.38v-6.89c0-.22 0-.23-.22-.23H39c-.27 0-.25.02-.25-.25v-3.32c0-.15-.04-.2-.18-.18-.09.01-.18 0-.28 0h-3.04c-.24 0-.24 0-.24-.25v-6.8c0-.14.04-.35-.03-.4-.1-.07-.3-.05-.45-.05H22.01a2 2 0 0 1-2-2v-9.06c0-.16.02-.2.18-.2l20.31.01a2 2 0 0 1 2 2v1.57c0 .13.01.2.17.19.11-.02.22 0 .33 0h17.9c.35 0 .35 0 .35.33v3.14c0 .27 0 .27.27.27h7.07c.12 0 .17.03.16.16v3.42c0 .14.03.2.18.18h12.93l1.69-.01c.17 0 .2.04.2.2v3.33c0 .22 0 .22.23.22h6.13c.32 0 .63.02.94 0 .19-.01.22.06.2.21v3.29c0 .26 0 .26.28.26H93a2 2 0 0 1 2 2V407a2 2 0 0 1-2 2h-8.97c-.28 0-.28 0-.28.26v3c0 .15.04.36-.03.44-.08.09-.3.05-.44.05H72.73c-.22 0-.23 0-.23.22v10.83c0 .16.03.2.2.2h3.33c.22 0 .22 0 .22.23v6.13c0 .32.02.63 0 .94-.02.19.06.22.2.2h3.29c.26 0 .26 0 .26.28V437a2 2 0 0 1-2 2H67a2 2 0 0 1-2-2v-5.17c0-.33 0-.33-.3-.33h-3.1c-.35 0-.35 0-.35-.33v-7.03c0-.1-.02-.15-.12-.14H50.16c-.12-.01-.17.03-.16.15v3.43c0 .14-.03.19-.18.18-.1-.02-.21 0-.32 0H35.2c-.17-.03-.2.03-.2.2v3.33c0 .21 0 .21-.23.21h-6.79c-.1 0-.19.02-.28 0-.19-.03-.21.06-.2.21.01.1 0 .19 0 .28v2.96c0 .3 0 .3-.33.3h-7.16Zm48.77-48.75h-7.12c-.27 0-.4-.14-.4-.42v-3.1c0-.22 0-.23-.22-.23h-7.07c-.16 0-.22.02-.21.2v3.33c0 .22 0 .22.22.22h3.33c.17 0 .2.04.2.2v7.08c0 .22 0 .22.23.23h3.1c.28 0 .42.14.42.44v6.8c0 .25 0 .25.24.25H76c.24 0 .24 0 .24-.26v-2.95c0-.17-.05-.4.03-.5.09-.08.32-.04.49-.04h6.75c.22 0 .23 0 .23-.21v-3.33c0-.16-.03-.21-.2-.21h-3.38c-.14 0-.18-.03-.18-.18v-3.13c0-.11.02-.23 0-.33 0-.04-.06-.1-.1-.1-.11-.02-.22 0-.33 0h-3.1c-.21 0-.21-.01-.21-.24v-3.28c0-.23 0-.23-.22-.24h-7.25Z"
			style="mix-blend-mode:difference"/>
	<path fill="#000"
			d="M179.52 634a14.5 14.5 0 0 0 .48-29 17.77 17.77 0 0 1-.75 28.7 17.77 17.77 0 0 1 .23-28.7A14.5 14.5 0 0 0 165 619.5c.03 8 6.53 14.5 14.52 14.5Z"/>
	<rect width="4" height="4" x="285" y="283" fill="#000" rx="2"/>
	<rect width="4" height="4" x="289" y="279" fill="#000" rx="2"/>
	<rect width="4" height="4" x="293" y="283" fill="#000" rx="2"/>
	<rect width="8" height="4" x="305" y="283" fill="#000" rx="2"/>
	<rect width="4" height="4" x="305" y="279" fill="#000" rx="2"/>
	<rect width="4" height="4" x="301" y="301" fill="#000" rx="2"/>
	<rect width="4" height="4" x="297" y="297" fill="#000" rx="2"/>
	<rect width="4" height="4" x="297" y="304" fill="#000" rx="2"/>
	<rect width="4" height="4" x="289" y="561" fill="#fff" rx="2"/>
	<rect width="4" height="4" x="301" y="561" fill="#fff" rx="2"/>
	<rect width="4" height="4" x="289" y="561" fill="#fff" rx="2"/>
	<rect width="40" height="4" fill="#fff" rx="2" transform="matrix(1 0 0 -1 289 561)"/>
	<rect width="32" height="4" fill="#fff" rx="2" transform="matrix(1 0 0 -1 293 557)"/>
	<rect width="24" height="4" fill="#fff" rx="2" transform="matrix(1 0 0 -1 297 553)"/>
	<rect width="16" height="4" fill="#fff" rx="2" transform="matrix(1 0 0 -1 301 549)"/>
	<rect width="4" height="4" x="301" y="561" fill="#fff" rx="2"/>
	<rect width="4" height="4" x="313" y="561" fill="#fff" rx="2"/>
	<rect width="4" height="40" x="307" y="541" fill="#fff" rx="2"/>
	<rect width="4" height="4" x="303" y="581" fill="#fff" rx="2"/>
	<rect width="4" height="4" x="299" y="577" fill="#fff" rx="2"/>
	<rect width="4" height="4" x="325" y="561" fill="#fff" rx="2"/>
	<path fill="#fff"
			d="m76.43 577.74-7.16-7.15a2 2 0 0 0-1.41-.59H57.14a2 2 0 0 0-1.41.59l-7.09 7.08-.9.9-7.15 7.16a2 2 0 0 0-.59 1.41v10.72a2 2 0 0 0 .59 1.41l7.15 7.15.9.91 7.09 7.08a2 2 0 0 0 1.41.59h10.72a2 2 0 0 0 1.41-.59l7.16-7.15.9-.9 7.08-7.09a2 2 0 0 0 .59-1.41v-10.72a2 2 0 0 0-.59-1.41l-7.08-7.09-.9-.9Zm5.24 14.22a.54.54 0 1 1 0 1.08H69.7a2 2 0 0 0-1.41.59l-1.86 1.85-.9.9-1.93 1.93a2 2 0 0 0-.58 1.42v11.98a.54.54 0 0 1-1.09 0v-11.99a2 2 0 0 0-.58-1.41l-1.86-1.85-.9-.91-1.93-1.92a2 2 0 0 0-1.41-.59H43.26a.54.54 0 1 1 0-1.08h11.98a2 2 0 0 0 1.41-.59l1.93-1.92.9-.9 1.86-1.86a2 2 0 0 0 .58-1.42V573.3a.54.54 0 0 1 1.09 0v11.99a2 2 0 0 0 .58 1.41l1.93 1.92.9.91 1.86 1.85a2 2 0 0 0 1.41.59h11.98Z"/>
	<path fill="#000"
			d="M250.93 306.42c.09.26.12.5.1.73a1.65 1.65 0 0 1-.6 1.11 1.88 1.88 0 0 1-1.24.43c-.22 0-.43-.04-.63-.12-.2-.1-.38-.22-.53-.38a1.72 1.72 0 0 1-.37-.63 1.65 1.65 0 0 1 .08-1.34c.11-.2.25-.36.42-.5a1.95 1.95 0 0 1 1.23-.43c.23 0 .44.05.64.14.2.08.38.2.54.37.15.16.27.37.36.62Zm-1.28 1.59c.29-.1.49-.27.6-.52.12-.25.12-.53.01-.84-.1-.3-.28-.51-.52-.64a.97.97 0 0 0-.8-.04.97.97 0 0 0-.6.53c-.12.25-.12.52-.01.83.11.34.3.56.53.67.23.1.5.11.79 0Zm5.2 1.96c.08.25.12.5.1.72a1.64 1.64 0 0 1-.62 1.12 1.95 1.95 0 0 1-1.24.43 1.8 1.8 0 0 1-.62-.13c-.2-.09-.38-.22-.53-.38a1.74 1.74 0 0 1-.37-.63 1.66 1.66 0 0 1 .08-1.34c.11-.2.25-.36.42-.5a1.96 1.96 0 0 1 1.23-.43c.23 0 .44.05.64.14.2.08.38.2.54.37.15.16.28.37.36.63Zm-1.3 1.58c.3-.1.5-.27.61-.52.12-.25.12-.53.02-.83-.11-.3-.28-.52-.53-.64a.97.97 0 0 0-.8-.05.97.97 0 0 0-.6.54c-.11.24-.12.51-.01.82.11.34.3.56.53.67.24.1.5.11.79.01Zm-.53-4.99a.3.3 0 1 1 .42.42l-3.97 3.97a.3.3 0 0 1-.42-.42l3.97-3.96Z"/>
	<path stroke="#000" stroke-width=".5" d="M236 283.25h40"/>
	<path stroke="#000" stroke-width=".5" d="M236 293.75h40"/>
	<path stroke="#000" stroke-width=".5" d="M236 283.25h40"/>
	<path stroke="#000" stroke-width=".5" d="M236 293.75h40"/>
	<path stroke="#000" stroke-width=".5" d="M236 304.25h40"/>
	<path stroke="#000" stroke-width=".5" d="M246.25 313v-40"/>
	<path stroke="#000" stroke-width=".5" d="M256.25 304v-31"/>
	<path stroke="#000" stroke-width=".5" d="M266.25 304v-55"/>
	<circle cx="261.5" cy="278" r="3" fill="#000"/>
	<circle cx="271.5" cy="278" r="3" fill="#000"/>
	<circle cx="261.5" cy="288.5" r="3" fill="#000"/>
	<circle cx="271.5" cy="288.5" r="3" fill="#000"/>
	<circle cx="261.5" cy="299.25" r="3" fill="#000"/>
	<circle cx="251.5" cy="299.25" r="3" fill="#000"/>
	<circle cx="271.5" cy="299.25" r="3" fill="#000"/>
	<mask id="b" width="11" height="11" x="246" y="283" maskUnits="userSpaceOnUse" style="mask-type:alpha">
		<rect width="10.5" height="10.5" x="246" y="283" fill="#D9D9D9" rx="2"/>
	</mask>
	<g stroke="#000" mask="url(#b)">
		<path d="m244.35 288.65 7 7"/>
		<path d="m243.35 281.65 14 14"/>
		<path d="m245.35 280.65 14 14"/>
		<path d="m246.35 278.65 14.71 14.7"/>
		<path d="m248.35 277.65 14 14"/>
		<path d="m243.85 285.15 10 10"/>
	</g>
	<mask id="c" width="11" height="11" x="236" y="294" maskUnits="userSpaceOnUse" style="mask-type:alpha">
		<rect width="10.5" height="10.5" x="236" y="304.5" fill="#D9D9D9" rx="2" transform="rotate(-90 236 304.5)"/>
	</mask>
	<g stroke="#000" mask="url(#c)">
		<path d="m241.65 306.15 7-7"/>
		<path d="m234.65 307.15 14-14"/>
		<path d="m233.65 305.15 14-14"/>
		<path d="m231.65 304.15 14.7-14.71"/>
		<path d="m230.65 302.15 14-14"/>
		<path d="m238.15 306.65 10-10"/>
	</g>
	<mask id="d" width="11" height="11" x="236" y="304" maskUnits="userSpaceOnUse" style="mask-type:alpha">
		<rect width="10.5" height="10.5" x="236" y="314.5" fill="#D9D9D9" rx="2" transform="rotate(-90 236 314.5)"/>
	</mask>
	<g stroke="#000" mask="url(#d)">
		<path d="m241.65 316.15 7-7"/>
		<path d="m234.65 317.15 14-14"/>
		<path d="m233.65 315.15 14-14"/>
		<path d="m231.65 314.15 14.7-14.71"/>
		<path d="m230.65 312.15 14-14"/>
		<path d="m238.15 316.65 10-10"/>
	</g>
	<mask id="e" width="11" height="11" x="236" y="283" maskUnits="userSpaceOnUse" style="mask-type:alpha">
		<rect width="10.5" height="10.5" x="236" y="283" fill="#D9D9D9" rx="2"/>
	</mask>
	<g stroke="#000" mask="url(#e)">
		<path d="m234.35 288.65 7 7"/>
		<path d="m233.35 281.65 14 14"/>
		<path d="m235.35 280.65 14 14"/>
		<path d="m236.35 278.65 14.71 14.7"/>
		<path d="m238.35 277.65 14 14"/>
		<path d="m233.85 285.15 10 10"/>
	</g>
	<mask id="f" width="11" height="12" x="236" y="272" maskUnits="userSpaceOnUse" style="mask-type:alpha">
		<rect width="10.5" height="10.5" x="246.5" y="272.75" fill="#D9D9D9" rx="2"
				transform="rotate(90 246.5 272.75)"/>
	</mask>
	<g stroke="#000" mask="url(#f)">
		<path d="m240.85 271.1-7 7"/>
		<path d="m247.85 270.1-14 14"/>
		<path d="m248.85 272.1-14 14"/>
		<path d="m250.85 273.1-14.7 14.71"/>
		<path d="m251.85 275.1-14 14"/>
		<path d="m244.35 270.6-10 10"/>
	</g>
	<mask id="g" width="11" height="12" x="246" y="272" maskUnits="userSpaceOnUse" style="mask-type:alpha">
		<rect width="10.5" height="10.5" x="256.5" y="283.25" fill="#D9D9D9" rx="2"
				transform="rotate(-180 256.5 283.25)"/>
	</mask>
	<g stroke="#000" mask="url(#g)">
		<path d="m257.15 277.6-7-7"/>
		<path d="m260.15 277.6-7-7"/>
		<path d="m258.15 284.6-14-14"/>
		<path d="m256.15 285.6-14-14"/>
		<path d="m255.15 287.6-14.71-14.7"/>
		<path d="m253.15 288.6-14-14"/>
		<path d="m257.65 281.1-10-10"/>
	</g>
	<path fill="#fff"
			d="M305.94 146.87a1.48 1.48 0 0 1 1.85 1.86 16 16 0 0 0 0 9.7 1.48 1.48 0 0 1-1.86 1.86 16 16 0 0 0-9.7 0 1.48 1.48 0 0 1-1.86-1.85 16 16 0 0 0 0-9.71 1.48 1.48 0 0 1 1.86-1.86 16 16 0 0 0 9.7 0Z"
			style="mix-blend-mode:difference"/>
	<g fill="#000" clip-path="url(#h)">
		<path
			d="M277 152.99h-8.88v6.47h-2.24v-6.47h-8.86v-2.15h8.84v-2.17h-6.63v-2.16h6.64V140h2.25v6.5h6.66v2.15h-6.64v2.16H277V153Z"/>
		<path d="M259.22 174.68v-4.3h2.2v-6.48h2.22v6.46h-2.2v4.32h-2.23.01Z"/>
		<path d="M272.54 170.34h-2.19v-6.44h2.2v6.26l-.01.2v-.02Z"/>
		<path d="M272.54 170.35h2.26v4.02l.02.29h-2.26v-4l-.02-.32Z"/>
		<path d="M259.21 174.68v4.31H257v-4.3h2.22v-.01Z"/>
		<path d="M274.82 174.66H277V179h-2.19l-.01-.16v-4l.02-.19Z"/>
		<path d="M272.52 142.16c.01-.23.04-.47.04-.7V140h2.22v2.15h-2.27v.01Z"/>
		<path d="M261.42 142.18h-2.19V140h2.19v2.18Z"/>
		<path d="M261.42 142.18h2.21v2.13h-2.2v-2.13h-.01Z"/>
		<path d="m272.51 142.15.05.37v1.8h-2.2v-2.16h2.16Z"/>
	</g>
	<g fill="#000" clip-path="url(#i)">
		<path
			d="M262.01 224v-8.88h-6.47v-2.24h6.47v-8.86h2.15v8.84h2.17v-6.63h2.16v6.64H275v2.25h-6.5v6.66h-2.15v-6.64h-2.16V224H262Z"/>
		<path d="M240.32 206.22h4.3v2.2h6.48v2.22h-6.46v-2.2h-4.32v-2.22Z"/>
		<path d="M244.66 219.54v-2.19h6.44v2.2h-6.26l-.19-.01Z"/>
		<path d="M244.65 219.54v2.26h-4.02l-.29.02v-2.26h4l.32-.02Z"/>
		<path d="M240.32 206.22h-4.31V204h4.3v2.22h.01Z"/>
		<path d="M240.34 221.82V224H236v-2.19l.16-.02h4c.06 0 .12.03.19.03Z"/>
		<path d="m272.84 219.52.7.04H275v2.22h-2.15v-2.27h-.01Z"/>
		<path d="M272.82 208.42v-2.18H275v2.18h-2.18Z"/>
		<path d="M272.82 208.41v2.22h-2.13v-2.21h2.13Z"/>
		<path d="m272.85 219.51-.37.05h-1.8v-2.2h2.16a1557.36 1557.36 0 0 0 0 2.15Z"/>
	</g>
	<g fill="#fff" style="mix-blend-mode:difference">
		<path
			d="M272.07 82.48a1.9 1.9 0 0 1-.8.09 3.89 3.89 0 0 1-3.1-5.15c.42-1.17.93-2.2 2.25-2.87 1.86-.94 4.69.85 4.98 2.56.34 2-.37 3.5-1.76 4.72-.4.35-1 .48-1.57.65Zm2.05-3.82c0-1.58-1.26-2.74-2.95-2.7-.89.02-1.86 1.23-1.82 2.27.04 1.19 1.5 2.7 2.67 2.66 1.18-.03 2.15-.5 2.1-2.23Z"/>
		<path
			d="M267.94 94.21c.02-.93.72-2.32 1.96-3.43.92-.82 3.06-.7 4.07.09 1.65 1.3 1.82 3.56 1.07 5.15-.57 1.2-1.22 2.23-2.74 2.46-1.96.3-4.36-1.55-4.36-4.27Zm1.4.17c-.02 1.58.81 2.36 2.58 2.42 1.38.05 2.21-1.06 2.2-2.93 0-1-1.41-2.45-2.39-2.45-1 0-2.38 1.7-2.4 2.96Z"/>
		<path
			d="M275.36 110.8c-.1 2.19-2.15 4.26-4.16 4.2-1.58-.05-3.88-2.08-3.85-3.4.04-2.46 2.06-4.96 3.94-4.73 1.99.24 4.45 1.54 4.07 3.94Zm-6.35-.02c.2 1.8.91 2.8 2.68 2.68 1.62-.12 2.35-.78 2.42-2.46.06-1.28-1.4-2.76-2.62-2.77-1.23 0-2.58.83-2.48 2.55Z"/>
		<path
			d="M272.19 58.37c1.88-.25 3.41 1.35 3.33 3.47-.08 2.23-1.65 4.07-3.64 4.07-2.33 0-3.78-1.3-3.78-3.38 0-2.33 1.8-4.16 4.08-4.16Zm-.56 1.68c-1.22-.03-2.05.41-1.99 2.7.03 1 1.16 1.87 2.42 1.86 1.25-.01 2.11-.86 2.04-2.15-.07-1.41-.62-2.25-2.47-2.4Z"/>
		<path
			d="M266.5 46.81c-.44.9-.85 1.3-1.62 1.4-.83.1-1.44.45-1.27 1.54.15 1 .1 2.05.19 3.07.08.95-.24 1.3-1.16 1.21-.48-.05-.57-.25-.5-.72.18-1.31.33-2.63.4-3.95.07-1.04-.35-1.38-1.42-1.35-.54 0-1.08.02-1.62-.02-.5-.03-.67-.27-.29-.7.78-.84 1.57-1.68 2.33-2.54.37-.43.64-.95 1.04-1.36.21-.22.6-.43.88-.38.19.03.43.5.43.77-.01.63-.16 1.25-.25 1.88-.13.94.04 1.08.98 1.01.58-.03 1.17.08 1.88.14Zm-5.45-.24.16.26a.1.1 0 0 0 .1.04c.44-.1 1.02-.11 1.2-.39.2-.28.1-.75.07-1.18a.27.27 0 0 0-.22-.25.26.26 0 0 0-.26.1l-1.05 1.42Z"/>
		<path
			d="M260.6 68.85c.3-.08.61-.27.9-.22 1.7.25 3.16-1.05 2.9-2.72-.18-1.1-.55-2.12-1.9-2.34-.54-.1-.46-.9-.02-1.25.15-.12.29-.24.38-.4.27-.4.48-1.03.37-1.47-.14-.54-.74-.54-1.3-.43-.38.08-1.1 0-1.14-.14-.16-.69.42-.9.95-1.1.9-.32 1.8-.39 2.47.43.55.66.65 1.34.52 2.02-.15.8-.09 1.65.33 2.36 1 1.69.99 3.41-.1 4.55-1.4 1.46-3.1 1.86-4.36.71Z"/>
		<path
			d="M264.44 81.61c-1.77-.16-3.16-.26-4.54-.42-.46-.06-.43-.89-.03-1.13l.12-.06c.9-.4 1.84-.7 2.72-1.13.87-.43.69-1.36.67-2.09 0-.63-.78-.82-1.64-.58-.46.12-.91-.5-.71-.94a.89.89 0 0 1 .13-.2c.52-.61 2.1-.78 2.82-.42.74.38 1.06 1.14.71 1.92-.4.9-.9 1.77-1.33 2.67-.08.17-.18.44-.1.55.09.12.36.16.55.16.62.01 1.26-.08 1.87 0 .67.1.84.59.26.99-.53.37-1.19.55-1.5.68Z"/>
		<path
			d="M262.24 92.06c-.06-.51.12-1.06.62-1.18.15-.04.31-.07.48-.07.9-.04.66 1.24.7 2.15.03.83-.15 1.68-.09 2.52.02.31.42.65.72.87.46.34.57.8.01.95-.24.07-.5.12-.78.17-1.08.17-1.35-1.05-1.3-2.15.02-.22 0-.45-.03-.69-.12-.82-.22-1.64-.33-2.57Z"/>
	</g>
	<g fill="#fff" style="mix-blend-mode:difference">
		<path
			d="M229.52 55.07a1.9 1.9 0 0 1-.09-.8 3.89 3.89 0 0 1 5.15-3.1c1.17.42 2.2.93 2.87 2.25.94 1.86-.85 4.69-2.56 4.98a4.8 4.8 0 0 1-4.72-1.76c-.35-.4-.48-1-.65-1.57Zm3.82 2.05c1.58 0 2.74-1.26 2.7-2.95-.02-.89-1.23-1.86-2.27-1.82-1.19.04-2.7 1.5-2.66 2.67.03 1.18.5 2.15 2.23 2.1Z"/>
		<path
			d="M217.79 50.94c.93.02 2.32.72 3.43 1.96.82.92.7 3.06-.09 4.07-1.3 1.65-3.56 1.82-5.15 1.07-1.2-.57-2.23-1.22-2.46-2.74-.3-1.96 1.55-4.36 4.27-4.36Zm-.17 1.4c-1.58-.02-2.36.81-2.42 2.58-.04 1.38 1.06 2.21 2.93 2.2 1 0 2.45-1.41 2.45-2.39 0-1-1.7-2.38-2.96-2.4Z"/>
		<path
			d="M201.2 58.36c-2.19-.1-4.26-2.15-4.2-4.16.05-1.58 2.08-3.88 3.4-3.85 2.46.04 4.96 2.06 4.73 3.94-.24 1.99-1.54 4.45-3.94 4.07Zm.02-6.35c-1.8.2-2.8.91-2.68 2.68.12 1.62.78 2.35 2.46 2.42 1.28.06 2.76-1.4 2.77-2.62 0-1.23-.83-2.58-2.55-2.48Z"/>
		<path
			d="M253.63 55.18c.25 1.9-1.35 3.42-3.47 3.34-2.23-.08-4.07-1.66-4.07-3.64 0-2.33 1.3-3.78 3.38-3.78a4.08 4.08 0 0 1 4.16 4.08Zm-1.68-.55c.03-1.22-.41-2.05-2.7-1.99-1 .03-1.87 1.16-1.86 2.42.01 1.25.86 2.11 2.15 2.04 1.41-.07 2.25-.62 2.4-2.47Z"/>
		<path
			d="M243.15 43.6c.08.3.27.61.22.9-.25 1.7 1.05 3.16 2.72 2.9 1.1-.18 2.12-.55 2.34-1.9.1-.54.9-.46 1.25-.02.12.15.24.29.4.38.4.27 1.03.48 1.47.37.54-.14.54-.74.43-1.3-.08-.38 0-1.1.14-1.14.69-.16.9.42 1.1.95.32.9.39 1.8-.43 2.47a2.3 2.3 0 0 1-2.02.52 3.37 3.37 0 0 0-2.36.33c-1.69 1-3.41.99-4.55-.1-1.46-1.4-1.86-3.1-.71-4.36Z"/>
		<path
			d="M230.39 47.44c.16-1.77.26-3.16.42-4.54.06-.46.89-.43 1.13-.03l.06.12c.4.9.7 1.84 1.13 2.72.43.87 1.36.69 2.09.67.63 0 .82-.78.59-1.64-.13-.46.49-.91.93-.71.07.03.14.07.2.13.61.52.78 2.1.42 2.82-.38.74-1.14 1.06-1.92.71-.9-.4-1.78-.9-2.67-1.33-.17-.08-.44-.18-.55-.1-.12.09-.16.36-.16.55-.01.62.08 1.26 0 1.86-.1.68-.59.85-.99.27-.37-.53-.55-1.19-.68-1.5Z"/>
		<path
			d="M219.94 45.24c.51-.07 1.06.12 1.18.61a2 2 0 0 1 .07.49c.04.9-1.24.66-2.15.7-.83.03-1.68-.15-2.52-.09-.31.02-.65.42-.87.72-.34.46-.8.57-.95.01a8.4 8.4 0 0 1-.17-.78c-.18-1.08 1.05-1.35 2.15-1.3.22.02.45 0 .69-.03.82-.12 1.64-.22 2.57-.33Z"/>
	</g>
	<mask id="j" width="42" height="41" x="115" y="265" maskUnits="userSpaceOnUse" style="mask-type:alpha">
		<circle cx="136" cy="285.5" r="20.5" fill="#fff"/>
	</mask>
	<g fill="#000" mask="url(#j)">
		<path
			d="M148.55 309.73h-.75a.75.75 0 0 1-.76-.75v-3.02a.75.75 0 0 0-.75-.75.75.75 0 0 1-.75-.75v-1.5a.75.75 0 0 0-.76-.76h-.02c-.4 0-.73.33-.73.74 0 .4-.33.74-.74.74h-5.3a1.5 1.5 0 0 1-1.5-1.5v-.76c0-.4.33-.74.74-.74.4 0 .73-.33.73-.74s.34-.75.75-.75h1.54c.41 0 .74.33.74.73 0 .4.33.74.73.74h1.53a.74.74 0 0 0 0-1.49.74.74 0 0 1-.73-.73v-.02a.75.75 0 0 0-.76-.75h-.36a.41.41 0 0 1-.41-.42v-1.1.01h2.24c.42 0 .76-.34.76-.76v-.02c0-.4-.33-.74-.73-.74a.73.73 0 0 1-.74-.73v-1.54c0-.4.33-.74.74-.74s.75-.33.75-.74v-1.53c0-.41.34-.75.75-.75s.75.33.75.74.34.74.75.74.76.34.76.76v3.04c0 .4-.33.74-.74.74-.4 0-.73.33-.73.73v4.57c0 .4.33.74.74.74.4 0 .74.33.74.74v1.51c0 .42.34.76.75.76.42 0 .76.34.76.76v5.3h.01Z"/>
		<path
			d="M136.47 291.6a1.5 1.5 0 0 1-1.5-1.5v-.56a.95.95 0 0 0-.95-.95h-2.09v-1.1c0-.24.2-.42.43-.42h.32c.41 0 .75-.34.75-.75a.76.76 0 0 0-.76-.75.76.76 0 0 1-.75-.76v-.74c0-.83-.67-1.5-1.5-1.5h-2.28a.74.74 0 0 0-.74.74c0 .42-.34.75-.75.75h-2.27v-1.04c0-.25.21-.46.46-.46h.61c.25 0 .45-.2.45-.44v-1.08h5.3c.41 0 .75-.33.75-.74 0-.42.33-.75.75-.75h2.23c.84 0 1.51.68 1.51 1.51v.77c0 .41-.32.74-.73.74-.4 0-.74.33-.74.74v1.53c0 .41.34.75.75.75.42 0 .75.33.75.75 0 .41.34.75.75.75h.32c.24 0 .43.19.43.43v1.07h-1.05c-.25 0-.46.2-.46.46v2.56Z"/>
		<path
			d="M125.9 278.03v-2.8c0-.96.77-1.73 1.73-1.73h1.28a1.5 1.5 0 0 0 1.51-1.5c0-.84.68-1.51 1.5-1.51h5.54a2 2 0 0 1 2 2v2.05c0 .25-.2.46-.45.46h-1.03v-2.15a.85.85 0 0 0-.85-.85h-3.2a2 2 0 0 0-2 2v3.25a.75.75 0 0 1-1.51 0 .75.75 0 0 0-.75-.74h-.02a.75.75 0 0 1-.75-.75.75.75 0 0 0-.75-.74.76.76 0 0 0-.75.75v1.82c0 .24-.2.43-.43.43h-1.07Z"/>
		<path
			d="M141 281.04v2.26c0 .42.32.75.74.75.41 0 .75.34.75.75v3.34c0 .25-.2.45-.46.45H141v-2.28a.75.75 0 0 0-.75-.75.75.75 0 0 1-.74-.74v-3.35c0-.23.19-.42.42-.42h1.06Z"/>
		<path
			d="M127.4 288.6v-.01h-2.26a.75.75 0 0 1-.75-.75.75.75 0 0 0-.75-.75.75.75 0 0 1-.74-.74v-1.86c0-.24.18-.42.42-.42h1.06v1.05c0 .26.2.47.46.47h.31c.42 0 .75.34.75.75 0 .42.34.75.75.75h.32c.24 0 .43.2.43.43v1.07Z"/>
		<path
			d="M137.97 275c0 .83.67 1.5 1.5 1.5h1.06c.25 0 .46.2.46.46v1.06h-3.23c-.7 0-1.28-.57-1.28-1.28v-1.28c0-.25.2-.45.46-.45h1.03V275Z"/>
		<path
			d="M136.46 291.62h.76c.41 0 .75.33.75.75 0 .41.33.75.75.75h.31c.25 0 .45.2.45.44v1.07h-2.13a.89.89 0 0 1-.88-.89v-2.12h-.01Z"/>
		<path d="M141 288.6v1.06c0 .23-.2.42-.43.42h-2.17a.42.42 0 0 1-.42-.42v-1.06h3.01Z"/>
		<path d="M131.94 288.6v2.54c0 .26-.22.47-.48.47h-1.03v-2.54c0-.26.21-.47.47-.47h1.03Z"/>
		<path d="M128.91 291.61h-1.03a.47.47 0 0 1-.47-.47v-2.54h1.04c.25 0 .46.2.46.45v2.56Z"/>
		<path d="M141 278.02h1.06c.24 0 .43.2.43.43v2.17c0 .23-.2.42-.43.42H141v-3.02Z"/>
		<path d="M125.9 281.04h-1.06a.44.44 0 0 1-.44-.44v-2.15c0-.24.2-.42.43-.42h1.06c0-.01 0 0 0 0v3.01Z"/>
		<path d="M139.48 294.64h1.09c.23 0 .41.19.41.42v1.1h.01-1.05a.45.45 0 0 1-.45-.45v-1.07h-.01Z"/>
		<path d="M130.43 291.61h-.01v1.08a.4.4 0 0 1-.4.4h-.7a.4.4 0 0 1-.4-.4v-1.07h1.5Z"/>
	</g>
	<path stroke="#000" d="M290 123.13c3-6.13 15.5-13.5 34.5-13.5"/>
	<path fill="#fff"
			d="M287 211v16c0 1.1.9 2 2 2h24a2 2 0 0 0 2-2v-9.33c0-1.1-.9-2-2-2.07-9.52-.66-15.29-5.8-24-6.52-1.1-.09-2 .81-2 1.92Z"/>
	<path stroke="#fff" d="M290 218.5c2.64-5.4 12.66-11.76 28-13.2"/>
	<rect width="216" height="1" fill="#fff" rx=".5" style="mix-blend-mode:difference"
			transform="matrix(1 0 0 -1 23 186)"/>
	<rect width="188" height="3" fill="#fff" rx="1.5" style="mix-blend-mode:difference"
			transform="matrix(1 0 0 -1 46 184)"/>
	<circle cx="311.5" cy="60.5" r="11.5" fill="#000"/>
	<circle cx="311.5" cy="60.5" r="11.5" fill="#000"/>
	<circle cx="313.5" cy="57.5" r="11" fill="#fff"/>
	<circle cx="313.5" cy="57.5" r="11" stroke="#000"/>
	<circle cx="313.5" cy="57.5" r="11" stroke="#000"/>
	<circle cx="311.5" cy="346.5" r="3.5" fill="#fff"/>
	<defs>
		<clipPath id="a">
			<rect width="40" height="18" x="223" y="394" fill="#fff" rx="2" transform="rotate(-180 223 394)"/>
		</clipPath>
		<clipPath id="h">
			<rect width="20" height="39" x="257" y="140" fill="#fff" rx="2"/>
		</clipPath>
		<clipPath id="i">
			<rect width="20" height="39" x="275" y="204" fill="#fff" rx="2" transform="rotate(90 275 204)"/>
		</clipPath>
	</defs>
</svg>
